<svg xmlns="http://www.w3.org/2000/svg" width="22.561" height="20.75" viewBox="0 0 22.561 20.75">
  <g id="Header-Cart-Icon" transform="translate(0.561 0.375)">
    <rect id="Header-Cart-Icon_background" data-name="Header-Cart-Icon background" width="22" height="20" fill="rgba(0,0,0,0)"/>
    <path id="Sales-Icon" d="M13.749,20a1.693,1.693,0,0,1-1.773-1.6,1.694,1.694,0,0,1,1.773-1.6,1.694,1.694,0,0,1,1.773,1.6A1.693,1.693,0,0,1,13.749,20Zm0-2.521a.93.93,0,1,0,1.027.925A.981.981,0,0,0,13.749,17.479ZM8.794,20a1.693,1.693,0,0,1-1.773-1.6,1.694,1.694,0,0,1,1.773-1.6,1.694,1.694,0,0,1,1.773,1.6A1.693,1.693,0,0,1,8.794,20Zm0-2.521a.93.93,0,1,0,0,1.849.93.93,0,1,0,0-1.849Zm4.78-2H5.094V14.8h8.48a2.739,2.739,0,0,0,1.906-.547,2.228,2.228,0,0,0,.593-1.727H3.621L0,3.757H16.078V2.88C16.079,1,17.2,0,19.321,0h2.3V.672h-2.3c-1.707,0-2.478.682-2.5,2.212l-.005,9.646C16.817,14.484,15.726,15.475,13.574,15.475Zm-2.121-7.4h0l1.561,3.782h3.055V4.429h-15l3.066,7.429H7.82L6.355,8.309l.7-.233,1.561,3.782h3.609L10.758,8.309l.7-.233Z" transform="translate(0)" fill="#fff" stroke="#fff" stroke-miterlimit="10" stroke-width="0.75"/>
  </g>
</svg>
