<svg width="198" height="199" viewBox="0 0 198 199" fill="none" xmlns="http://www.w3.org/2000/svg">
<path d="M98.6594 198.254C153.148 198.254 197.319 153.873 197.319 99.127C197.319 44.3807 153.148 0 98.6594 0C44.1713 0 0 44.3807 0 99.127C0 153.873 44.1713 198.254 98.6594 198.254Z" fill="#F5F5F5"/>
<g clip-path="url(#clip0_293_1195)">
<path d="M157.119 128.25H153.363V62.6174C153.363 61.8787 153.217 61.1472 152.934 60.4647C152.652 59.7822 152.237 59.1621 151.715 58.6399C151.192 58.1176 150.572 57.7034 149.889 57.4209C149.207 57.1384 148.475 56.9931 147.736 56.9934H50.2502C49.5114 56.9931 48.7799 57.1384 48.0973 57.4209C47.4147 57.7034 46.7944 58.1176 46.272 58.6399C45.7495 59.1621 45.335 59.7822 45.0523 60.4647C44.7695 61.1472 44.6239 61.8787 44.6239 62.6174V128.25H40.8827C40.3857 128.25 39.9091 128.447 39.5577 128.798C39.2062 129.15 39.0088 129.627 39.0088 130.124V137.624C39.0085 138.855 39.2508 140.074 39.7217 141.212C40.1927 142.349 40.8831 143.383 41.7536 144.254C42.6241 145.124 43.6576 145.815 44.795 146.286C45.9325 146.757 47.1517 147 48.3829 147H149.624C152.11 146.999 154.495 146.011 156.253 144.253C158.011 142.495 158.999 140.11 159 137.624V130.124C159 129.877 158.951 129.633 158.857 129.406C158.763 129.178 158.625 128.972 158.45 128.798C158.276 128.624 158.069 128.486 157.842 128.392C157.614 128.298 157.37 128.249 157.124 128.25H157.119ZM48.3696 62.6174C48.3696 62.1202 48.567 61.6434 48.9183 61.2916C49.2697 60.9398 49.7463 60.7419 50.2435 60.7413H147.75C148.247 60.7419 148.724 60.9397 149.076 61.2914C149.427 61.6432 149.625 62.12 149.626 62.6174V128.25H110.251C109.842 128.228 109.437 128.341 109.099 128.571C108.76 128.802 108.506 129.136 108.375 129.525L107.027 133.874H91.0324L89.5121 129.505C89.3841 129.138 89.1452 128.82 88.8284 128.595C88.5116 128.37 88.1327 128.249 87.7442 128.25H48.3762L48.3696 62.6174ZM155.252 137.624C155.252 138.362 155.107 139.094 154.824 139.776C154.541 140.459 154.127 141.079 153.604 141.601C153.082 142.124 152.461 142.538 151.779 142.82C151.096 143.103 150.365 143.248 149.626 143.248H48.3762C47.6376 143.248 46.9061 143.103 46.2237 142.82C45.5412 142.538 44.9211 142.123 44.3988 141.601C43.8765 141.079 43.4623 140.459 43.1797 139.776C42.8972 139.094 42.7519 138.362 42.7522 137.624V131.997H86.4205L87.9387 136.366C88.0617 136.721 88.2881 137.03 88.5887 137.254C88.8893 137.478 89.2502 137.607 89.6248 137.624H108.377C108.786 137.645 109.191 137.532 109.529 137.302C109.867 137.071 110.121 136.737 110.251 136.349L111.597 131.997H155.252V137.624Z" fill="#0D2EA0"/>
<path d="M145.876 122.623V66.3742C145.876 66.128 145.828 65.8842 145.734 65.6567C145.64 65.4292 145.502 65.2225 145.328 65.0485C145.154 64.8744 144.947 64.7364 144.719 64.6423C144.492 64.5482 144.248 64.5 144.002 64.5002H54.0025C53.7562 64.5 53.5123 64.5482 53.2847 64.6423C53.0571 64.7363 52.8502 64.8743 52.676 65.0483C52.5017 65.2224 52.3635 65.429 52.2692 65.6565C52.1749 65.884 52.1263 66.1279 52.1263 66.3742V122.623C52.1263 122.87 52.1749 123.113 52.2692 123.341C52.3635 123.568 52.5017 123.775 52.676 123.949C52.8502 124.123 53.0571 124.261 53.2847 124.355C53.5123 124.449 53.7562 124.498 54.0025 124.497H144.002C144.248 124.498 144.492 124.449 144.719 124.355C144.947 124.261 145.154 124.123 145.328 123.949C145.502 123.775 145.64 123.568 145.734 123.341C145.828 123.113 145.876 122.87 145.876 122.623ZM142.119 120.749H55.8764V68.2503H142.126L142.119 120.749Z" fill="#0D2EA0"/>
</g>
<path d="M76.6186 84.1228C75.7938 84.9477 75.7938 86.1845 76.6186 87.0093C77.0306 87.4212 77.6494 87.6282 78.0614 87.6282C78.6802 87.6282 79.0922 87.4222 79.5041 87.0093C90.019 76.4944 107.339 76.4944 117.853 87.0093C118.677 87.8341 119.914 87.8341 120.739 87.0093C121.564 86.1845 121.564 84.9477 120.739 84.1228C108.576 71.9591 88.7836 71.9591 76.6196 84.1228H76.6186Z" fill="#0D2EA0"/>
<path d="M82.5986 90.3093C81.7738 91.1341 81.7738 92.3709 82.5986 93.1958C83.4234 94.0206 84.6602 94.0206 85.4851 93.1958C92.7006 85.9802 104.453 85.9802 111.67 93.1958C112.494 94.0206 113.731 94.0206 114.556 93.1958C115.381 92.371 115.381 91.1342 114.556 90.3093C105.897 81.4441 91.4655 81.4441 82.5981 90.3093H82.5986Z" fill="#0D2EA0"/>
<path d="M98.6794 92.1658C94.9682 92.1658 91.4638 93.6085 88.7832 96.2891C87.9583 97.1139 87.9583 98.3507 88.7832 99.1755C89.608 100 90.8448 100 91.6696 99.1755C95.5869 95.2583 101.772 95.2583 105.689 99.1755C106.514 100 107.751 100 108.575 99.1755C109.4 98.3507 109.4 97.1139 108.575 96.2891C105.895 93.6086 102.391 92.1658 98.6791 92.1658H98.6794Z" fill="#0D2EA0"/>
<path d="M98.6796 99.9997C97.0299 99.9997 95.3813 100.619 94.1435 101.855C92.9067 103.092 92.2878 104.742 92.2878 106.391C92.2878 109.897 95.1743 112.783 98.6797 112.783C102.185 112.783 105.071 109.897 105.071 106.391C105.071 102.886 102.185 99.9996 98.6797 99.9996L98.6796 99.9997ZM98.6796 108.452C97.4428 108.452 96.412 107.421 96.412 106.185C96.412 105.566 96.618 104.948 97.0309 104.535C97.4428 104.123 98.0617 103.916 98.6806 103.916C99.9173 103.916 100.948 104.947 100.948 106.184C100.947 107.628 99.9164 108.452 98.6796 108.452L98.6796 108.452Z" fill="#0D2EA0"/>
<defs>
<clipPath id="clip0_293_1195">
<rect width="120" height="90" fill="white" transform="translate(39 57)"/>
</clipPath>
</defs>
</svg>
