<?xml version="1.0" encoding="UTF-8"?>
<svg width="270px" height="103px" viewBox="0 0 270 103" version="1.1" xmlns="http://www.w3.org/2000/svg" xmlns:xlink="http://www.w3.org/1999/xlink">
    <!-- Generator: Sketch 42 (36781) - http://www.bohemiancoding.com/sketch -->
    <title>Shape</title>
    <desc>Created with Sketch.</desc>
    <defs></defs>
    <g id="Style-Guide" stroke="none" stroke-width="1" fill="none" fill-rule="evenodd">
        <g id="logos" transform="translate(-126.000000, -54.000000)" fill="#FFFFFF">
            <g id="head_brotherlogo" transform="translate(126.000000, 54.000000)">
                <path d="M207.928513,83.3184713 L208.147847,82.4437367 L208.586515,81.5690021 L209.025183,80.6942675 L209.463851,79.8195329 L210.121852,79.163482 L210.56052,78.7261146 L210.999188,78.507431 L211.437855,78.2887473 L212.095857,78.0700637 L212.753859,77.85138 L214.069862,77.85138 L214.727864,78.0700637 L215.166531,78.2887473 L215.605199,78.507431 L216.043867,78.7261146 L216.482535,79.163482 L217.140536,80.0382166 L217.579204,80.9129512 L218.017872,81.7876858 L218.017872,82.6624204 L218.237206,83.537155 L207.928513,83.537155 L207.928513,83.3184713 Z M213.41186,75.4458599 L212.315191,75.4458599 L211.437855,75.6645435 L210.56052,75.8832272 L209.683184,76.1019108 L209.025183,76.5392781 L208.367181,77.1953291 L207.70918,77.85138 L207.051178,78.507431 L206.61251,79.163482 L206.173842,79.8195329 L205.735175,80.6942675 L205.296507,81.5690021 L205.077173,82.4437367 L204.857839,83.3184713 L204.857839,84.4118896 L204.638505,85.5053079 L204.857839,86.5987261 L204.857839,87.6921444 L205.077173,88.566879 L205.296507,89.4416136 L205.735175,90.3163482 L206.173842,90.9723992 L206.61251,91.6284501 L207.051178,92.2845011 L207.70918,92.7218684 L208.367181,93.1592357 L209.025183,93.596603 L209.902518,93.8152866 L210.779854,94.0339703 L211.657189,94.2526539 L212.534525,94.4713376 L215.385865,94.4713376 L216.921202,94.2526539 L218.237206,93.8152866 L219.553209,93.3779193 L218.895207,90.9723992 L218.456539,91.8471338 L217.35987,91.8471338 L216.043867,92.0658174 L213.192526,92.0658174 L211.876523,91.8471338 L210.779854,91.4097665 L210.341186,91.1910828 L209.902518,90.7537155 L209.463851,90.3163482 L209.025183,89.8789809 L208.586515,89.4416136 L208.367181,88.7855626 L208.367181,88.1295117 L208.147847,87.4734607 L208.147847,86.5987261 L207.928513,85.7239915 L220.869212,85.7239915 L220.869212,85.0679406 L221.088546,84.1932059 L220.869212,82.6624204 L220.649878,81.1316348 L220.21121,79.6008493 L219.772543,78.9447983 L219.333875,78.2887473 L218.895207,77.6326964 L218.456539,76.9766454 L217.798538,76.5392781 L217.140536,76.5392781 L216.263201,76.1019108 L215.385865,75.6645435 L214.289196,75.4458599 L213.41186,75.4458599 L213.41186,75.4458599 Z M198.716491,86.5987261 L198.716491,87.4734607 L198.497157,88.1295117 L198.277823,89.0042463 L197.619821,89.6602972 L197.181154,90.3163482 L196.523152,90.9723992 L195.86515,91.4097665 L195.207149,91.8471338 L194.329813,92.0658174 L193.01381,92.0658174 L192.355808,91.8471338 L191.697807,91.8471338 L191.259139,91.6284501 L190.820471,91.4097665 L190.381803,90.9723992 L189.943136,90.5350318 L189.723802,90.0976645 L189.0658,89.0042463 L188.627132,87.910828 L188.188465,86.5987261 L188.188465,83.7558386 L188.627132,82.4437367 L189.0658,81.1316348 L189.723802,80.0382166 L189.943136,79.6008493 L190.381803,79.163482 L190.820471,78.7261146 L191.478473,78.507431 L191.917141,78.2887473 L192.575142,78.0700637 L193.01381,77.85138 L193.671812,77.85138 L194.549147,78.0700637 L195.426483,78.2887473 L196.084484,78.507431 L196.742486,78.9447983 L197.400487,79.6008493 L197.839155,80.2569002 L198.277823,80.9129512 L198.497157,81.7876858 L198.716491,82.4437367 L198.716491,86.5987261 L198.716491,86.5987261 Z M201.787165,68.2292994 L198.497157,68.2292994 L198.497157,78.2887473 L198.277823,78.2887473 L198.058489,77.6326964 L197.619821,77.1953291 L197.181154,76.7579618 L196.523152,76.3205945 L195.86515,76.1019108 L194.987815,75.6645435 L193.891145,75.4458599 L192.136474,75.4458599 L191.259139,75.6645435 L190.381803,75.8832272 L189.723802,76.1019108 L189.0658,76.5392781 L188.407799,76.9766454 L187.749797,77.4140127 L187.091795,78.0700637 L186.653128,78.7261146 L186.21446,79.3821656 L185.775792,80.2569002 L185.337124,81.1316348 L185.11779,82.0063694 L184.898457,83.0997877 L184.679123,84.1932059 L184.679123,86.5987261 L184.898457,87.4734607 L185.11779,88.566879 L185.337124,89.4416136 L185.775792,90.3163482 L186.21446,90.9723992 L186.653128,91.6284501 L187.091795,92.2845011 L187.749797,92.7218684 L188.407799,93.1592357 L189.0658,93.596603 L189.723802,93.8152866 L190.381803,94.0339703 L191.259139,94.2526539 L192.136474,94.4713376 L194.110479,94.4713376 L195.207149,94.2526539 L196.084484,93.8152866 L196.96182,93.3779193 L197.619821,92.940552 L198.277823,92.2845011 L198.935825,91.6284501 L199.374492,90.7537155 L199.593826,94.0339703 L202.445167,94.0339703 L202.225833,91.8471338 L202.225833,68.2292994 L201.787165,68.2292994 Z M177.660439,94.4713376 L180.950447,94.4713376 L180.950447,75.8832272 L177.660439,75.8832272 L177.660439,94.4713376 L177.660439,94.4713376 Z M179.41511,68.2292994 L178.976442,68.447983 L178.537774,68.447983 L178.099106,68.6666667 L177.879773,68.8853503 L177.441105,69.104034 L177.221771,69.5414013 L177.221771,71.2908705 L177.441105,71.7282378 L177.660439,71.9469214 L178.099106,72.3842887 L178.537774,72.6029724 L180.292445,72.6029724 L180.511779,72.3842887 L180.731113,71.9469214 L180.950447,71.7282378 L181.169781,71.2908705 L181.389115,70.8535032 L181.389115,69.9787686 L181.169781,69.5414013 L180.950447,69.104034 L180.731113,68.8853503 L180.511779,68.6666667 L180.292445,68.447983 L179.853777,68.447983 L179.41511,68.2292994 L179.41511,68.2292994 Z M168.66775,83.537155 L166.474411,82.6624204 L165.816409,82.2250531 L165.158408,81.7876858 L164.939074,81.5690021 L164.500406,81.3503185 L164.500406,80.2569002 L164.71974,79.6008493 L164.939074,79.163482 L165.377742,78.7261146 L165.816409,78.507431 L166.474411,78.0700637 L167.132413,78.0700637 L168.009748,77.85138 L169.325751,78.0700637 L170.422421,78.2887473 L171.51909,78.507431 L172.396426,78.9447983 L173.273761,76.7579618 L172.177092,76.3205945 L171.080422,75.8832272 L169.764419,75.6645435 L168.229082,75.4458599 L166.474411,75.6645435 L165.816409,75.6645435 L165.158408,75.8832272 L164.500406,76.1019108 L163.842405,76.5392781 L163.403737,76.7579618 L162.965069,77.1953291 L162.745735,77.6326964 L162.307067,78.0700637 L161.8684,78.9447983 L161.649066,80.0382166 L161.210398,80.9129512 L161.429732,81.7876858 L161.649066,82.4437367 L162.087734,83.0997877 L162.526401,83.7558386 L163.184403,84.4118896 L164.061738,85.0679406 L165.158408,85.5053079 L166.474411,85.9426752 L168.66775,86.8174098 L169.325751,87.2547771 L169.983753,87.6921444 L170.422421,88.1295117 L170.641755,88.566879 L170.641755,89.0042463 L170.861089,89.4416136 L170.641755,90.0976645 L170.422421,90.5350318 L170.203087,90.9723992 L169.764419,91.4097665 L169.106418,91.8471338 L168.448416,92.0658174 L167.57108,92.2845011 L166.693745,92.2845011 L165.377742,92.0658174 L164.061738,91.8471338 L162.745735,91.4097665 L161.649066,90.9723992 L160.77173,93.3779193 L162.087734,93.8152866 L163.403737,94.2526539 L164.939074,94.4713376 L168.229082,94.4713376 L169.764419,94.0339703 L170.422421,93.8152866 L171.080422,94.0339703 L171.51909,93.596603 L172.177092,93.1592357 L172.61576,92.940552 L173.054427,92.5031847 L173.273761,92.0658174 L173.712429,91.6284501 L173.931763,91.1910828 L173.931763,90.5350318 L174.151097,89.4416136 L174.151097,88.3481953 L173.712429,87.4734607 L173.273761,86.5987261 L172.61576,85.9426752 L171.957758,85.2866242 L171.080422,84.6305732 L169.983753,83.9745223 L168.66775,83.537155 L168.66775,83.537155 Z M147.611698,79.6008493 L147.17303,75.8832272 L144.102356,75.8832272 L144.32169,78.7261146 L144.32169,94.4713376 L147.831032,94.4713376 L147.831032,83.7558386 L148.050366,82.881104 L148.269699,82.0063694 L148.708367,81.1316348 L149.147035,80.4755839 L149.585703,79.8195329 L150.243704,79.3821656 L151.12104,78.9447983 L151.998375,78.7261146 L154.411048,78.7261146 L154.411048,75.6645435 L153.97238,75.4458599 L153.314379,75.4458599 L152.437043,75.6645435 L151.559708,75.8832272 L150.682372,76.1019108 L149.805037,76.5392781 L149.147035,77.1953291 L148.489033,77.85138 L148.050366,78.7261146 L147.611698,79.6008493 L147.611698,79.6008493 Z M139.277011,75.8832272 L135.987002,75.8832272 L135.987002,88.1295117 L135.767669,89.0042463 L135.329001,89.6602972 L135.109667,90.0976645 L134.670999,90.7537155 L134.232331,91.1910828 L133.57433,91.6284501 L132.916328,91.8471338 L132.038993,92.0658174 L131.161657,92.2845011 L130.064988,92.0658174 L129.406986,91.8471338 L128.748985,91.1910828 L128.310317,90.5350318 L127.652315,89.6602972 L127.213647,88.7855626 L127.213647,75.8832272 L123.923639,75.8832272 L123.923639,87.910828 L124.142973,89.0042463 L124.362307,89.8789809 L124.581641,90.7537155 L124.800975,91.4097665 L125.239643,92.0658174 L125.67831,92.7218684 L126.116978,93.1592357 L126.555646,93.596603 L126.994314,94.0339703 L127.652315,94.2526539 L128.310317,94.6900212 L129.406986,94.9087049 L131.819659,94.9087049 L132.916328,94.6900212 L133.793664,94.2526539 L134.670999,93.8152866 L135.329001,93.1592357 L135.987002,92.7218684 L136.42567,92.0658174 L136.864338,91.4097665 L137.083672,94.4713376 L139.935012,94.4713376 L139.935012,92.0658174 L139.715678,89.2229299 L139.715678,75.8832272 L139.277011,75.8832272 Z M111.640942,92.5031847 L110.324939,92.5031847 L109.886271,92.2845011 L109.447604,91.8471338 L109.008936,91.4097665 L108.570268,90.9723992 L108.1316,90.5350318 L107.692933,90.0976645 L107.034931,89.0042463 L106.596263,87.6921444 L106.376929,86.3800425 L106.157595,85.2866242 L106.376929,83.9745223 L106.596263,82.6624204 L107.034931,81.3503185 L107.692933,80.2569002 L108.1316,79.8195329 L108.570268,79.3821656 L109.008936,78.9447983 L109.447604,78.507431 L109.886271,78.2887473 L110.544273,78.0700637 L111.202275,77.85138 L112.518278,77.85138 L113.176279,78.0700637 L113.834281,78.2887473 L114.492283,78.507431 L114.93095,78.9447983 L115.369618,79.3821656 L115.808286,79.8195329 L116.246954,80.2569002 L116.904955,81.3503185 L117.343623,82.6624204 L117.562957,83.9745223 L117.562957,86.8174098 L117.124289,88.3481953 L116.246954,89.2229299 L115.588952,90.3163482 L115.150284,90.7537155 L114.711617,91.1910828 L114.272949,91.6284501 L114.053615,91.8471338 L113.395613,92.0658174 L112.737612,92.2845011 L111.640942,92.2845011 L111.640942,92.5031847 Z M111.860276,75.4458599 L110.982941,75.4458599 L110.105605,75.6645435 L109.22827,75.8832272 L108.350934,76.1019108 L107.473599,76.5392781 L106.815597,76.9766454 L106.157595,77.4140127 L105.28026,78.0700637 L104.841592,78.7261146 L104.183591,79.3821656 L103.744923,80.2569002 L103.306255,81.1316348 L103.086921,82.2250531 L102.867587,83.0997877 L102.867587,84.1932059 L102.648253,85.2866242 L102.867587,86.3800425 L102.867587,87.4734607 L103.086921,88.3481953 L103.525589,89.2229299 L103.744923,90.0976645 L104.402924,90.7537155 L104.841592,91.4097665 L105.28026,92.0658174 L105.938262,92.7218684 L106.596263,93.1592357 L107.254265,93.596603 L108.1316,94.0339703 L109.008936,94.2526539 L109.886271,94.4713376 L110.763607,94.6900212 L113.395613,94.6900212 L114.272949,94.4713376 L115.150284,94.0339703 L116.02762,93.8152866 L116.685621,93.3779193 L117.343623,92.940552 L118.001625,92.5031847 L118.440292,91.8471338 L119.098294,91.1910828 L119.536962,90.3163482 L119.97563,89.4416136 L120.414297,88.3481953 L120.633631,87.2547771 L120.852965,85.9426752 L120.852965,83.537155 L120.633631,82.4437367 L120.414297,81.5690021 L120.194963,80.6942675 L119.756296,79.8195329 L119.317628,78.9447983 L118.87896,78.7261146 L118.440292,78.0700637 L117.782291,77.4140127 L117.124289,76.9766454 L116.246954,76.5392781 L115.369618,76.3205945 L114.492283,76.1019108 L113.614947,75.8832272 L112.737612,75.6645435 L111.860276,75.6645435 L111.860276,75.4458599 Z M94.9715678,86.8174098 L93.6555646,90.5350318 L93.4362307,90.5350318 L92.997563,88.7855626 L92.3395613,86.8174098 L88.3915516,75.8832272 L84.8822096,75.8832272 L91.6815597,92.940552 L91.9008936,93.3779193 L92.1202275,93.596603 L91.9008936,94.0339703 L91.6815597,94.4713376 L91.0235581,95.7834395 L90.3655565,96.8768577 L89.488221,97.7515924 L88.8302193,98.4076433 L88.1722177,99.0636943 L87.2948822,99.5010616 L86.6368806,99.9384289 L85.978879,100.157113 L86.8562145,103 L87.5142161,102.781316 L88.6108855,102.343949 L89.7075548,101.687898 L90.8042242,100.813163 L91.6815597,99.9384289 L92.5588952,98.8450106 L93.4362307,97.7515924 L94.0942323,96.4394904 L94.752234,94.9087049 L95.6295695,93.1592357 L97.3842405,89.0042463 L102.209586,75.6645435 L98.7002437,75.6645435 L94.9715678,86.8174098 L94.9715678,86.8174098 Z M70.4061738,71.0721868 L67.1161657,72.1656051 L67.1161657,75.8832272 L64.2648253,75.8832272 L64.2648253,78.507431 L67.1161657,78.507431 L67.1161657,90.3163482 L67.3354996,91.6284501 L67.7741673,92.7218684 L68.432169,93.596603 L69.0901706,94.2526539 L69.9675061,94.6900212 L71.0641755,94.9087049 L74.1348497,94.9087049 L75.450853,94.4713376 L74.7928513,91.8471338 L73.9155158,92.0658174 L73.0381803,92.2845011 L72.3801787,92.0658174 L71.941511,92.0658174 L71.5028432,91.8471338 L71.0641755,91.4097665 L70.8448416,90.9723992 L70.6255077,90.3163482 L70.4061738,89.6602972 L70.4061738,78.507431 L75.2315191,78.507431 L75.2315191,75.8832272 L70.4061738,75.8832272 L70.4061738,71.0721868 L70.4061738,71.0721868 Z M58.1234768,88.3481953 L58.1234768,88.7855626 L57.904143,89.2229299 L57.6848091,89.8789809 L57.2461413,90.3163482 L57.0268075,90.9723992 L56.5881397,91.4097665 L55.9301381,91.8471338 L55.2721365,92.2845011 L54.394801,92.5031847 L52.8594639,92.5031847 L52.4207961,92.2845011 L51.7627945,91.8471338 L51.3241267,91.4097665 L50.885459,90.9723992 L50.6661251,90.3163482 L50.4467912,89.8789809 L50.4467912,88.3481953 L50.6661251,87.6921444 L50.885459,87.2547771 L51.1047929,86.8174098 L51.5434606,86.3800425 L51.9821284,85.9426752 L52.4207961,85.5053079 L53.0787977,85.2866242 L54.394801,84.8492569 L55.7108042,84.6305732 L58.3428107,84.6305732 L58.3428107,88.3481953 L58.1234768,88.3481953 Z M61.413485,83.0997877 L61.413485,81.7876858 L61.1941511,80.4755839 L60.9748172,79.8195329 L60.7554833,79.163482 L60.3168156,78.507431 L59.8781478,77.85138 L59.4394801,77.4140127 L59.0008123,76.9766454 L58.5621446,76.5392781 L57.904143,76.1019108 L57.0268075,75.8832272 L56.149472,75.6645435 L55.2721365,75.4458599 L54.1754671,75.4458599 L52.64013,75.6645435 L51.1047929,75.8832272 L49.5694557,76.5392781 L48.2534525,77.1953291 L49.130788,79.3821656 L50.2274574,78.7261146 L51.5434606,78.2887473 L52.8594639,78.0700637 L54.1754671,77.85138 L54.8334687,78.0700637 L55.4914703,78.0700637 L55.9301381,78.2887473 L56.3688058,78.507431 L56.8074736,78.7261146 L57.2461413,78.9447983 L57.6848091,79.6008493 L58.1234768,80.2569002 L58.3428107,80.9129512 L58.5621446,81.5690021 L58.5621446,82.6624204 L55.9301381,82.881104 L54.8334687,82.881104 L53.2981316,83.0997877 L52.2014622,83.537155 L51.3241267,83.7558386 L50.4467912,84.1932059 L49.7887896,84.6305732 L49.130788,85.0679406 L48.6921202,85.5053079 L48.2534525,85.9426752 L47.8147847,86.5987261 L47.376117,87.2547771 L47.1567831,87.910828 L46.9374492,88.7855626 L46.9374492,90.7537155 L47.1567831,91.6284501 L47.5954509,92.5031847 L48.2534525,93.3779193 L48.9114541,94.0339703 L50.0081235,94.6900212 L50.4467912,94.9087049 L51.1047929,95.1273885 L53.7367994,95.1273885 L54.6141348,94.9087049 L55.4914703,94.6900212 L56.149472,94.2526539 L56.8074736,93.8152866 L57.4654752,93.3779193 L57.904143,92.940552 L58.3428107,92.5031847 L58.7814785,94.9087049 L61.8521527,94.9087049 L61.6328188,92.7218684 L61.413485,89.8789809 L61.413485,83.0997877 L61.413485,83.0997877 Z M207.051178,30.6157113 L207.489846,29.522293 L207.928513,28.4288747 L208.367181,27.3354565 L209.025183,26.4607219 L209.683184,25.5859873 L210.341186,24.7112527 L210.999188,24.0552017 L211.876523,23.3991507 L212.753859,22.7430998 L213.631194,22.3057325 L214.50853,21.8683652 L215.385865,21.4309979 L216.482535,21.2123142 L217.579204,20.9936306 L218.675873,20.7749469 L221.088546,20.7749469 L222.404549,20.9936306 L223.720552,21.4309979 L225.036556,21.8683652 L226.133225,22.3057325 L227.229894,22.9617834 L228.10723,23.6178344 L228.984565,24.2738854 L229.861901,24.9299363 L230.519903,25.8046709 L231.177904,26.6794055 L231.616572,27.5541401 L232.05524,28.4288747 L232.274574,29.3036093 L232.493907,29.9596603 L232.493907,30.6157113 L207.051178,30.6157113 L207.051178,30.6157113 Z M93.8748985,49.8598726 L92.5588952,49.641189 L91.242892,49.4225053 L89.9268887,49.2038217 L88.6108855,48.5477707 L87.2948822,48.1104034 L86.1982128,47.4543524 L85.1015435,46.5796178 L84.0048741,45.9235669 L83.1275386,45.0488323 L82.2502031,43.7367304 L81.5922015,42.6433121 L81.1535337,41.5498938 L80.714866,40.2377919 L80.2761982,38.92569 L80.0568643,37.3949045 L80.0568643,34.552017 L80.2761982,33.0212314 L80.714866,31.7091295 L81.1535337,30.3970276 L81.8115353,29.0849257 L82.469537,27.9915074 L83.3468725,26.8980892 L84.224208,26.0233546 L85.1015435,25.14862 L86.1982128,24.2738854 L87.5142161,23.6178344 L88.6108855,23.1804671 L89.9268887,22.7430998 L91.242892,22.5244161 L92.5588952,22.3057325 L93.8748985,22.0870488 L95.4102356,22.3057325 L96.7262388,22.5244161 L98.0422421,22.7430998 L99.3582453,23.1804671 L100.674249,23.6178344 L101.770918,24.2738854 L102.867587,25.14862 L103.744923,26.0233546 L104.622258,27.1167728 L105.499594,28.2101911 L106.157595,29.522293 L106.815597,30.6157113 L107.254265,31.9278132 L107.692933,33.2399151 L107.912266,34.552017 L107.912266,37.3949045 L107.692933,38.7070064 L107.254265,40.0191083 L106.376929,41.5498938 L105.718928,42.6433121 L105.060926,43.955414 L104.402924,45.0488323 L103.525589,45.9235669 L102.648253,46.7983015 L101.551584,47.6730361 L100.454915,48.329087 L99.1389115,48.7664544 L97.8229082,49.4225053 L96.506905,49.641189 L95.1909017,49.8598726 L93.8748985,49.8598726 L93.8748985,49.8598726 Z M24.565394,49.8598726 L23.2493907,49.641189 L21.9333875,49.4225053 L20.6173842,49.2038217 L19.301381,48.5477707 L18.2047116,48.1104034 L17.1080422,47.4543524 L16.0113729,46.5796178 L14.9147035,45.9235669 L14.037368,45.0488323 L13.1600325,43.7367304 L12.5020309,42.6433121 L12.0633631,41.5498938 L11.6246954,40.2377919 L11.1860276,38.92569 L10.9666937,37.6135881 L10.9666937,34.7707006 L11.1860276,33.2399151 L11.6246954,31.9278132 L12.0633631,30.6157113 L12.7213647,29.3036093 L13.1600325,28.4288747 L14.037368,27.3354565 L14.9147035,26.4607219 L15.792039,25.5859873 L16.8887084,24.7112527 L18.2047116,24.0552017 L19.301381,23.6178344 L20.6173842,23.1804671 L21.9333875,22.9617834 L23.2493907,22.7430998 L24.565394,22.5244161 L25.8813972,22.7430998 L27.4167344,22.9617834 L28.7327376,23.1804671 L30.0487409,23.6178344 L31.3647441,24.0552017 L32.4614135,24.7112527 L33.5580829,25.5859873 L34.4354184,26.4607219 L35.3127539,27.5541401 L36.1900894,28.6475584 L36.848091,29.9596603 L37.5060926,31.0530786 L37.9447604,32.3651805 L38.3834281,33.6772824 L38.602762,34.9893843 L38.602762,37.8322718 L38.3834281,39.1443737 L37.9447604,40.4564756 L37.0674249,41.5498938 L36.4094232,42.6433121 L35.7514216,43.955414 L35.09342,44.8301486 L34.2160845,45.9235669 L33.338749,46.7983015 L32.2420796,47.6730361 L31.1454102,48.329087 L29.829407,48.7664544 L28.5134037,49.4225053 L27.1974005,49.641189 L25.6620634,49.8598726 L24.565394,49.8598726 L24.565394,49.8598726 Z M268.683997,11.1528662 L265.832656,11.1528662 L263.20065,11.5902335 L260.787977,12.0276008 L258.375305,12.6836518 L256.181966,13.5583864 L254.207961,14.6518047 L252.45329,15.7452229 L250.917953,17.0573248 L249.382616,18.5881104 L248.066613,20.118896 L246.969943,21.8683652 L246.092608,23.6178344 L245.434606,25.3673036 L244.995938,27.3354565 L244.557271,29.3036093 L244.557271,31.4904459 L244.118603,29.3036093 L243.460601,27.1167728 L242.583266,25.14862 L241.486596,23.1804671 L240.170593,21.4309979 L239.073924,19.462845 L237.538587,17.9320594 L236.003249,16.4012739 L234.248578,15.089172 L232.493907,13.9957537 L230.300569,13.1210191 L228.326564,12.2462845 L226.133225,11.5902335 L223.939886,11.1528662 L221.746548,10.9341826 L219.553209,10.7154989 L217.35987,10.9341826 L215.166531,11.1528662 L212.973193,11.5902335 L210.999188,12.2462845 L209.244517,13.1210191 L207.270512,13.9957537 L205.515841,15.089172 L203.76117,16.4012739 L202.225833,17.7133758 L200.690496,19.462845 L199.593826,20.9936306 L198.277823,22.7430998 L197.181154,24.7112527 L196.303818,26.6794055 L195.645816,28.866242 L194.987815,31.0530786 L194.987815,29.0849257 L194.549147,27.1167728 L194.110479,25.3673036 L193.452478,23.3991507 L193.01381,21.6496815 L191.917141,20.118896 L190.820471,18.3694268 L189.723802,16.8386412 L188.407799,15.5265393 L186.872461,14.2144374 L185.337124,13.1210191 L183.582453,12.2462845 L181.827782,11.5902335 L179.853777,11.3715499 L177.879773,10.9341826 L174.151097,10.9341826 L172.396426,11.1528662 L170.861089,11.5902335 L169.325751,12.2462845 L167.790414,12.9023355 L166.255077,13.7770701 L164.939074,14.8704883 L163.623071,15.9639066 L163.623071,0 L151.998375,0 L151.998375,37.1762208 L151.779041,39.1443737 L151.779041,40.4564756 L151.340374,41.5498938 L150.901706,42.8619958 L150.463038,43.955414 L150.02437,45.0488323 L149.366369,45.9235669 L148.708367,46.7983015 L148.050366,47.4543524 L147.392364,48.1104034 L146.515028,48.7664544 L145.637693,49.2038217 L144.760357,49.4225053 L143.883022,49.8598726 L142.786353,50.0785563 L141.909017,50.0785563 L140.812348,50.2972399 L139.715678,50.0785563 L138.619009,50.0785563 L137.52234,49.8598726 L136.42567,49.641189 L135.987002,49.2038217 L135.109667,48.7664544 L134.232331,48.329087 L133.57433,47.8917197 L132.916328,47.2356688 L132.258327,46.3609342 L131.600325,45.2675159 L131.161657,44.1740977 L130.722989,43.0806794 L130.503656,41.7685775 L130.284322,40.4564756 L130.064988,38.92569 L130.064988,22.5244161 L148.269699,22.5244161 L148.269699,11.5902335 L130.064988,11.5902335 L130.064988,0 L118.220959,0 L118.220959,31.2717622 L117.782291,29.0849257 L117.124289,27.1167728 L116.246954,25.14862 L115.150284,23.3991507 L114.053615,21.4309979 L112.737612,19.6815287 L111.421608,17.9320594 L109.666937,16.6199575 L108.1316,15.3078556 L106.376929,13.9957537 L104.402924,12.9023355 L102.42892,12.0276008 L100.235581,11.3715499 L98.0422421,10.9341826 L95.8489033,10.7154989 L93.6555646,10.4968153 L92.1202275,10.4968153 L90.5848903,10.7154989 L89.2688871,10.9341826 L87.9528838,11.1528662 L86.4175467,11.5902335 L85.1015435,12.0276008 L83.7855402,12.4649682 L82.469537,13.1210191 L81.3728676,13.7770701 L80.0568643,14.433121 L78.960195,15.3078556 L77.8635256,16.1825902 L76.7668562,17.0573248 L75.6701868,18.1507431 L74.5735175,19.0254777 L73.696182,20.118896 L73.696182,11.1528662 L69.5288383,11.1528662 L66.8968318,11.5902335 L64.4841592,12.0276008 L62.2908205,12.6836518 L60.0974817,13.5583864 L58.1234768,14.433121 L57.0268075,15.5265393 L55.4914703,16.8386412 L54.1754671,18.3694268 L52.8594639,19.6815287 L51.7627945,21.4309979 L50.885459,23.1804671 L50.0081235,24.9299363 L49.5694557,26.8980892 L49.130788,28.866242 L48.9114541,30.8343949 L48.4727864,28.866242 L47.8147847,26.8980892 L46.9374492,24.9299363 L46.0601137,22.9617834 L44.9634444,21.2123142 L43.866775,19.6815287 L42.3314379,18.1507431 L41.0154346,16.8386412 L39.4800975,15.5265393 L37.9447604,14.433121 L36.1900894,13.3397028 L34.4354184,12.4649682 L32.4614135,11.8089172 L30.4874086,11.3715499 L28.5134037,10.9341826 L24.1267262,10.9341826 L21.7140536,11.5902335 L19.5207149,12.0276008 L17.7660439,12.6836518 L16.0113729,13.5583864 L14.4760357,14.6518047 L12.7213647,15.9639066 L11.4053615,17.2760085 L11.4053615,0 L0,0 L0,36.0828025 L0.219333875,38.7070064 L0.43866775,41.1125265 L1.09666937,43.7367304 L1.97400487,45.9235669 L2.85134037,48.1104034 L4.16734362,50.0785563 L5.48334687,52.0467091 L7.018684,53.7961783 L8.55402112,55.5456476 L9.43135662,56.2016985 L10.3086921,56.8577495 L11.4053615,57.5138004 L12.5020309,58.1698514 L13.5987002,58.8259023 L14.6953696,59.2632696 L15.792039,59.7006369 L17.1080422,60.1380042 L18.4240455,60.3566879 L19.5207149,60.5753715 L20.8367181,60.7940552 L21.9333875,61.2314225 L26.7587327,61.2314225 L29.1714054,60.7940552 L31.3647441,60.3566879 L33.5580829,59.7006369 L35.5320877,59.044586 L37.2867587,57.9511677 L39.0414297,56.8577495 L40.5767669,55.5456476 L42.112104,54.2335456 L43.4281072,52.7027601 L44.7441105,51.1719745 L45.8407799,49.4225053 L46.9374492,47.6730361 L47.8147847,45.7048832 L48.4727864,43.7367304 L48.9114541,41.5498938 L48.9114541,60.1380042 L60.5361495,60.1380042 L60.5361495,33.895966 L60.7554833,32.5838641 L60.9748172,31.2717622 L61.1941511,30.1783439 L61.6328188,29.0849257 L62.0714866,28.2101911 L62.7294882,27.3354565 L63.3874898,26.4607219 L64.0454915,25.8046709 L64.922827,25.14862 L65.8001625,24.492569 L66.8968318,24.0552017 L67.9935012,23.6178344 L69.0901706,23.1804671 L70.4061738,22.9617834 L71.7221771,22.7430998 L73.0381803,22.7430998 L71.941511,24.0552017 L71.0641755,25.5859873 L70.4061738,27.3354565 L69.9675061,29.0849257 L69.3095045,30.6157113 L68.8708367,32.3651805 L68.6515028,34.1146497 L68.6515028,37.1762208 L68.8708367,38.4883227 L68.8708367,39.8004246 L69.0901706,41.1125265 L69.5288383,42.4246285 L69.7481722,43.7367304 L70.18684,45.0488323 L70.6255077,46.1422505 L71.7221771,48.329087 L73.0381803,50.5159236 L74.3541836,52.4840764 L75.8895207,54.2335456 L77.6441917,55.7643312 L79.6181966,57.2951168 L81.8115353,58.6072187 L84.0048741,59.7006369 L85.1015435,60.1380042 L86.1982128,60.5753715 L87.5142161,61.0127389 L88.8302193,61.2314225 L89.9268887,61.4501062 L91.242892,61.6687898 L92.5588952,61.8874735 L93.8748985,61.8874735 L96.0682372,61.6687898 L98.261576,61.4501062 L100.454915,61.0127389 L102.648253,60.3566879 L104.622258,59.4819533 L106.596263,58.388535 L108.350934,57.2951168 L109.886271,55.9830149 L111.421608,54.4522293 L112.737612,52.7027601 L114.053615,51.1719745 L115.150284,49.4225053 L116.246954,47.6730361 L117.124289,45.7048832 L117.782291,43.7367304 L118.220959,41.5498938 L118.440292,43.7367304 L118.659626,45.9235669 L119.098294,47.8917197 L119.97563,49.8598726 L120.852965,51.6093418 L121.949634,53.1401274 L123.046304,54.670913 L124.581641,56.2016985 L126.116978,57.5138004 L127.652315,58.6072187 L129.406986,59.044586 L131.161657,59.9193206 L133.135662,60.5753715 L135.109667,61.0127389 L137.303006,61.2314225 L141.251015,61.2314225 L143.005686,61.0127389 L144.541024,60.5753715 L146.076361,59.9193206 L147.611698,59.044586 L148.927701,58.1698514 L150.243704,57.0764331 L151.559708,55.7643312 L151.559708,59.9193206 L163.184403,59.9193206 L163.184403,34.7707006 L163.403737,33.4585987 L163.403737,31.9278132 L163.623071,30.3970276 L163.842405,29.0849257 L164.281072,27.9915074 L164.71974,26.8980892 L165.158408,25.8046709 L165.816409,24.9299363 L166.474411,24.2738854 L167.351747,23.6178344 L168.009748,23.1804671 L168.887084,22.7430998 L169.764419,22.3057325 L170.641755,21.8683652 L171.51909,21.6496815 L175.247766,21.6496815 L176.125102,21.8683652 L177.002437,22.3057325 L177.879773,22.7430998 L178.537774,23.1804671 L179.853777,24.0552017 L180.511779,24.7112527 L181.169781,25.3673036 L181.608448,26.2420382 L182.047116,27.3354565 L182.485784,28.4288747 L182.924452,29.522293 L183.143786,30.8343949 L183.363119,32.1464968 L183.363119,60.1380042 L195.207149,60.3566879 L195.207149,41.5498938 L195.86515,43.7367304 L196.523152,45.9235669 L197.400487,47.8917197 L198.497157,49.8598726 L199.593826,51.6093418 L200.909829,53.358811 L202.445167,54.8895966 L203.980504,56.4203822 L205.735175,57.7324841 L207.489846,58.8259023 L209.463851,59.9193206 L211.437855,60.5753715 L213.41186,61.2314225 L215.605199,61.6687898 L217.798538,61.8874735 L222.623883,61.8874735 L225.036556,61.4501062 L227.229894,61.0127389 L229.203899,60.3566879 L231.177904,59.4819533 L232.932575,58.6072187 L234.467912,57.5138004 L236.003249,56.2016985 L237.319253,54.8895966 L238.635256,53.358811 L239.731925,51.8280255 L240.828595,50.0785563 L241.70593,48.5477707 L242.363932,46.7983015 L243.021933,45.0488323 L243.460601,43.2993631 L232.05524,43.2993631 L231.616572,44.611465 L230.739236,45.9235669 L230.300569,46.5796178 L229.642567,47.2356688 L228.984565,47.8917197 L228.326564,48.5477707 L227.449228,49.2038217 L226.571893,49.8598726 L225.694557,50.2972399 L224.597888,50.7346072 L223.501219,51.1719745 L222.404549,51.3906582 L221.30788,51.6093418 L218.895207,51.6093418 L217.579204,51.3906582 L216.482535,51.1719745 L215.385865,50.7346072 L214.069862,50.2972399 L212.973193,49.8598726 L211.876523,49.2038217 L210.999188,48.5477707 L210.121852,47.6730361 L209.244517,46.7983015 L208.586515,45.9235669 L208.367181,44.611465 L207.70918,43.7367304 L207.270512,42.6433121 L206.831844,41.3312102 L206.393176,40.0191083 L244.337937,40.0191083 L244.337937,60.1380042 L255.962632,60.1380042 L255.962632,33.895966 L256.181966,32.5838641 L256.4013,31.2717622 L256.620634,29.9596603 L257.059301,28.866242 L257.497969,27.7728238 L258.155971,26.8980892 L258.813972,26.0233546 L259.691308,25.3673036 L260.568643,24.7112527 L261.445979,24.0552017 L262.542648,23.6178344 L263.639318,23.1804671 L264.735987,22.7430998 L266.05199,22.5244161 L267.367994,22.3057325 L270,22.3057325 L270,11.1528662 L268.683997,11.1528662 L268.683997,11.1528662 Z" id="Shape"></path>
            </g>
        </g>
    </g>
</svg>