<svg width="199" height="199" viewBox="0 0 199 199" fill="none" xmlns="http://www.w3.org/2000/svg">
<path d="M99.127 198.254C153.873 198.254 198.254 153.873 198.254 99.127C198.254 44.3807 153.873 0 99.127 0C44.3807 0 0 44.3807 0 99.127C0 153.873 44.3807 198.254 99.127 198.254Z" fill="#F5F5F5"/>
<path d="M53.0936 54.8036C49.7333 54.8036 47 57.5071 47 60.8303V105.026C47 108.349 49.7335 111.052 53.0936 111.052H60.4061V137.169C60.4061 140.492 63.1396 143.196 66.4997 143.196H144.906C148.266 143.196 151 140.492 151 137.169V92.9735C151 89.6501 148.266 86.9468 144.906 86.9468H137.594V60.8303C137.594 57.5069 134.86 54.8036 131.5 54.8036H53.0936ZM53.0936 58.8214H131.5C132.619 58.8214 133.531 59.7233 133.531 60.8305V66.8572H51.0634V60.8305C51.0634 59.7234 51.9753 58.8214 53.0947 58.8214H53.0936ZM51.0623 78.9116H133.53V86.9474H66.4988C63.1385 86.9474 60.4052 89.6509 60.4052 92.9741V107.036H53.0927C51.9734 107.036 51.0614 106.135 51.0614 105.027L51.0623 78.9116ZM66.4997 90.9652H144.906C146.026 90.9652 146.938 91.8671 146.938 92.9742V137.17C146.938 138.277 146.026 139.179 144.906 139.179H66.4997C65.3804 139.179 64.4684 138.277 64.4684 137.17V92.9742C64.4684 91.8672 65.3803 90.9652 66.4997 90.9652ZM115.25 99.0009C109.65 99.0009 105.093 103.507 105.093 109.046C105.093 114.584 109.65 119.09 115.25 119.09C117.464 119.09 119.599 118.372 121.342 117.079C123.087 118.372 125.222 119.09 127.437 119.09C133.037 119.09 137.593 114.584 137.593 109.046C137.593 103.507 133.037 99.0009 127.437 99.0009C125.222 99.0009 123.087 99.7191 121.342 101.013C119.598 99.7191 117.464 99.0009 115.25 99.0009ZM115.25 103.019C116.996 103.019 118.662 103.763 119.818 105.06C119.818 105.061 119.819 105.061 119.819 105.061C120.802 106.161 121.343 107.575 121.343 109.044C121.343 110.513 120.802 111.928 119.818 113.03C118.662 114.327 116.997 115.071 115.25 115.071C111.889 115.071 109.156 112.367 109.156 109.044C109.156 105.721 111.889 103.017 115.25 103.017V103.019ZM127.437 103.019C130.797 103.019 133.531 105.722 133.531 109.045C133.531 112.369 130.797 115.072 127.437 115.072C126.22 115.072 125.043 114.711 124.051 114.053C124.931 112.541 125.406 110.817 125.406 109.045C125.406 107.275 124.931 105.55 124.051 104.037C125.045 103.38 126.222 103.018 127.437 103.018V103.019Z" fill="#0D2EA0"/>
</svg>
