<svg width="24" height="24" viewBox="0 0 24 22" fill="none" xmlns="http://www.w3.org/2000/svg"><path d="M5.125 21.428q-.585 0-.908-.293a1 1 0 0 1-.352-.713q-.02-.43.293-.84.215-.273.508-.703.293-.42.576-.879.294-.468.508-.87a9.6 9.6 0 0 1-2.676-1.903 8.6 8.6 0 0 1-1.758-2.608 7.6 7.6 0 0 1-.625-3.047q0-1.885.87-3.535a9.3 9.3 0 0 1 2.421-2.9q1.554-1.251 3.604-1.953Q9.646.48 12 .48t4.404.704q2.06.703 3.614 1.953 1.553 1.24 2.421 2.9.87 1.65.87 3.535a7.5 7.5 0 0 1-.586 2.96 8.4 8.4 0 0 1-1.67 2.528 10.4 10.4 0 0 1-2.569 1.954q-1.485.81-3.31 1.24a15.7 15.7 0 0 1-3.897.39q-1.025.742-2.197 1.368-1.172.635-2.236 1.025-1.054.39-1.719.39m1.162-1.983a10 10 0 0 0 1.104-.566q.673-.38 1.386-.86.723-.468 1.309-.898a2 2 0 0 1 .547-.322q.264-.108.576-.108.254.01.45.02H12q1.953 0 3.643-.557 1.698-.556 2.978-1.533 1.28-.987 2.002-2.275.723-1.298.723-2.774 0-1.474-.723-2.763-.723-1.29-2.002-2.276-1.28-.986-2.978-1.543-1.69-.555-3.643-.556-1.944 0-3.643.556-1.698.557-2.978 1.543-1.28.987-2.002 2.276a5.6 5.6 0 0 0-.713 2.763q0 1.28.547 2.432.557 1.143 1.611 2.1 1.055.947 2.55 1.65.468.225.556.566.098.333-.117.742-.274.498-.752 1.143-.48.654-.85 1.113-.069.078-.04.117.03.05.118.01" fill="#fff"/></svg>