<?xml version="1.0"?>
<svg xmlns="http://www.w3.org/2000/svg" height="512px" viewBox="0 -16 512.001 512" width="512px" class=""><g><path d="m0 18.042969v293.839843l168.617188-147.171874zm0 0" data-original="#000000" class="active-path" data-old_color="#ffffff" fill="#ffffff"/><path d="m226 175.238281 200.117188-175.238281h-401.234376zm0 0" data-original="#000000" class="active-path" data-old_color="#ffffff" fill="#ffffff"/><path d="m336.074219 253.378906-75.605469-68.621094-24.710938 21.625c-2.800781 2.417969-6.285156 3.617188-9.757812 3.617188s-6.957031-1.199219-9.757812-3.617188l-24.867188-21.761718-166.570312 145.378906h218.113281c22.242187-34.265625 54.679687-61.449219 93.15625-76.621094zm0 0" data-original="#000000" class="active-path" data-old_color="#ffffff" fill="#ffffff"/><path d="m384.789062 215.316406c14.363282-7.71875 32.179688-7.082031 46.15625 2.226563l20.054688 13.371093v-212.871093l-167.828125 146.847656 81.15625 73.660156c3.847656-9.757812 10.867187-18.105469 20.460937-23.234375zm0 0" data-original="#000000" class="active-path" data-old_color="#ffffff" fill="#ffffff"/><path d="m414.320312 242.519531c-4.601562-3.0625-10.53125-3.351562-15.394531-.746093-4.878906 2.605468-7.925781 7.691406-7.925781 13.226562v15.675781c-83.980469 7.601563-150 78.398438-150 164.324219v30c0 8.292969 6.710938 15 15 15s15-6.707031 15-15c0-57.890625 47.109375-105 105-105h15v15c0 5.539062 3.046875 10.621094 7.925781 13.226562 4.863281 2.609376 10.796875 2.316407 15.394531-.746093l91-60c4.175782-2.78125 6.679688-7.46875 6.679688-12.480469 0-5.007812-2.503906-9.695312-6.679688-12.476562zm0 0" data-original="#000000" class="active-path" data-old_color="#ffffff" fill="#ffffff"/></g> </svg>
