<?xml version="1.0" encoding="UTF-8"?>
<svg width="29px" height="30px" viewBox="0 0 29 30" version="1.1" xmlns="http://www.w3.org/2000/svg" xmlns:xlink="http://www.w3.org/1999/xlink">
    <!-- Generator: Sketch 53 (72520) - https://sketchapp.com -->
    <title>Free-Shipping-Icon</title>
    <desc>Created with Sketch.</desc>
    <g id="Icons" stroke="none" stroke-width="1" fill="none" fill-rule="evenodd">
        <g id="Icons/Free-Shipping-Icon" transform="translate(0.481481, 1.000000)" fill="#01A65F" fill-rule="nonzero" stroke="#01A65F" stroke-width="0.5">
            <path d="M18.3186888,24.9634871 C15.2241619,24.9383203 12.5382475,24.9145698 10.2609453,24.8922356 C10.0384005,26.9757074 8.34352534,28.5957447 6.28571429,28.5957447 C4.19527263,28.5957447 2.47936825,26.9239224 2.30101164,24.7927781 C1.27862994,24.7732145 0.759081973,24.7553938 0.742367733,24.7393158 C0.453279293,24.4612325 -3.90798505e-14,24.3140159 -3.90798505e-14,23.8326488 L0.029479588,1.31049526 C0.029479588,0.565258219 0.42481852,1.77635684e-14 1.08407201,1.77635684e-14 L8.9360997,0.0144723391 L16.5562302,0.00800346623 C17.2154837,0.00800346623 18.0385916,0.49237962 18.0385916,1.23761666 L18.0236947,8.07163821 C22.4279277,8.05035028 24.6775898,8.08700225 24.7726808,8.18159414 C24.9110627,8.31924958 25.7692542,11.4450626 27.3472553,17.5590331 C27.3472553,17.6418372 27.3743607,19.7169522 27.4285714,23.7843782 C27.4285714,24.4699375 26.8287553,24.8433916 26.2518433,24.9706944 C25.9956722,27.0162374 24.3176212,28.5957447 22.2857143,28.5957447 C20.2514216,28.5957447 18.5718163,27.012526 18.3186888,24.9634871 Z M18.297896,24.0976526 C18.4582792,21.9477657 20.1824179,20.2553191 22.2857143,20.2553191 C24.3879227,20.2553191 26.1113656,21.9460153 26.2732824,24.094317 C26.6265681,24.0881545 26.8032109,24.0800653 26.8032109,24.0700492 L26.7662068,17.8507898 L24.5213411,9.01451197 C24.5213411,8.8903058 24.0003812,8.86084078 23.8905056,8.86084078 L18.0229804,8.83896987 L18.0167698,24.0965594 C18.1112403,24.0969321 18.2049491,24.0972965 18.297896,24.0976526 Z M2.29883298,24.0853278 C2.4648727,21.941301 4.18643878,20.2553191 6.28571429,20.2553191 C8.38498979,20.2553191 10.1065559,21.941301 10.2725956,24.0853278 L17.3098453,24.0853278 L17.3098453,1.60453783 C17.3098453,1.47483553 16.6181156,0.762016948 16.50824,0.762016948 C13.5177237,0.763762488 11.0340778,0.763762488 9.05730208,0.762016948 C7.0333046,0.76022971 4.35570725,0.76022971 1.02451003,0.762016948 C0.914634447,0.762016948 0.804758865,1.47483553 0.804758865,1.60453783 L0.804758865,23.6962209 C0.804758865,23.9556255 1.4964886,24.0853278 1.60636418,24.0853278 L2.29883298,24.0853278 Z M24.330008,17.9130383 L20.0448603,17.9130383 C19.7152335,17.9130383 19.4954824,17.6646259 19.4954824,17.2920074 L19.4954824,11.1828435 C19.4954824,10.810225 19.7152335,10.5618126 20.0448603,10.5618126 L22.7917498,10.5618126 C23.011501,10.5618126 23.3145257,10.6673257 23.4244013,10.9157381 L24.9565265,17.0300465 C25.066402,17.2784588 24.9892614,17.4162136 24.8793859,17.6646259 C24.7695103,17.9130383 24.5497591,17.9130383 24.330008,17.9130383 Z M20.012384,17.2540928 L24.4711595,17.2958904 L23.0439772,11.2207581 L20.012384,11.2207581 L20.012384,17.2540928 Z M6.28571429,28 C8.179262,28 9.71428571,26.3996561 9.71428571,24.4255319 C9.71428571,22.4514077 8.179262,20.8510638 6.28571429,20.8510638 C4.39216657,20.8510638 2.85714286,22.4514077 2.85714286,24.4255319 C2.85714286,26.3996561 4.39216657,28 6.28571429,28 Z M22.2857143,28 C24.179262,28 25.7142857,26.3996561 25.7142857,24.4255319 C25.7142857,22.4514077 24.179262,20.8510638 22.2857143,20.8510638 C20.3921666,20.8510638 18.8571429,22.4514077 18.8571429,24.4255319 C18.8571429,26.3996561 20.3921666,28 22.2857143,28 Z M6.49720982,15.5405585 C7.06975733,15.5126328 7.46484266,15.2944668 7.68247768,14.8860539 C7.79631753,14.6766113 7.85323661,14.4340107 7.85323661,14.1582447 C7.85323661,13.7219061 7.69922029,13.3902937 7.39118304,13.1633976 C7.21372679,13.0307507 6.9157387,12.905087 6.49720982,12.7864029 L6.49720982,15.5405585 Z M4.79464286,10.4877826 C4.79464286,10.8333628 4.90429578,11.1038887 5.12360491,11.2993684 C5.34291404,11.4948481 5.638391,11.6309837 6.01004464,11.7077793 L6.01004464,9.24684176 C5.57142638,9.2642953 5.25920852,9.40392156 5.0733817,9.66572473 C4.88755487,9.9275279 4.79464286,10.2015444 4.79464286,10.4877826 Z M3.890625,10.550615 C3.890625,10.0200273 4.07728608,9.54180732 4.45061384,9.11594082 C4.8239416,8.69007433 5.34709485,8.47365363 6.02008929,8.46667221 L6.02008929,7.77027926 L6.49720982,7.77027926 L6.49720982,8.45620013 C7.1635078,8.50507006 7.67494241,8.71014613 8.03152902,9.07143451 C8.38811562,9.43272288 8.5747767,9.91007017 8.59151786,10.5034907 L7.71261161,10.5034907 C7.68917399,10.2381968 7.62053628,10.0095588 7.50669643,9.81756981 C7.29575787,9.46500821 6.9592657,9.28000341 6.49720982,9.26254987 L6.49720982,11.807264 C7.27399942,12.03416 7.8013379,12.2470901 8.07924107,12.4460605 C8.53125226,12.7741871 8.75725446,13.2593884 8.75725446,13.9016789 C8.75725446,14.8302074 8.46763682,15.4899415 7.88839286,15.8809009 C7.56696268,16.0973249 7.10323964,16.2404418 6.49720982,16.310256 L6.49720982,17.3260472 L6.02008929,17.3260472 L6.02008929,16.310256 C5.04575406,16.2439325 4.38448835,15.8843949 4.03627232,15.2316323 C3.84542315,14.8790707 3.75,14.4025961 3.75,13.8021941 L4.63895089,13.8021941 C4.66573674,14.2804213 4.73772263,14.6294869 4.85491071,14.8494016 C5.06250104,15.2438517 5.44754183,15.4655084 6.01004464,15.5143783 L6.01004464,12.660738 C5.28682674,12.517619 4.7527919,12.278509 4.40792411,11.9434009 C4.06305631,11.6082929 3.890625,11.1440355 3.890625,10.550615 Z M11.9313616,8.58710106 C12.8621698,8.58710106 13.5351542,8.98678124 13.9503348,9.78615359 C14.271765,10.4040091 14.4324777,11.2504933 14.4324777,12.3256316 C14.4324777,13.3449187 14.2868318,14.1879122 13.9955357,14.8546376 C13.5736586,15.8110919 12.8839334,16.2893118 11.9263393,16.2893118 C11.0624957,16.2893118 10.419645,15.8983583 9.99776786,15.1164395 C9.6462036,14.4636769 9.47042411,13.5875221 9.47042411,12.4879488 C9.47042411,11.6362158 9.5758918,10.9049233 9.78683036,10.2940492 C10.1819216,9.15607809 10.8967582,8.58710106 11.9313616,8.58710106 Z M11.921317,15.4306017 C12.3900693,15.4306017 12.7633915,15.214181 13.0412946,14.7813331 C13.3191978,14.3484852 13.4581473,13.5421435 13.4581473,12.3622839 C13.4581473,11.5105509 13.3577019,10.8098016 13.156808,10.260015 C12.9559142,9.7102283 12.5658511,9.4353391 11.9866071,9.4353391 C11.4542384,9.4353391 11.0650124,9.69626568 10.8189174,10.2181267 C10.5728224,10.7399876 10.4497768,11.5088048 10.4497768,12.5246011 C10.4497768,13.2890663 10.528459,13.9034219 10.6858259,14.3676862 C10.9268985,15.0763001 11.3387248,15.4306017 11.921317,15.4306017 Z" id="Combined-Shape"></path>
        </g>
    </g>
</svg>