<?xml version="1.0" encoding="UTF-8"?>
<svg width="21px" height="21px" viewBox="0 0 21 21" version="1.1" xmlns="http://www.w3.org/2000/svg" xmlns:xlink="http://www.w3.org/1999/xlink">
    <!-- Generator: Sketch 42 (36781) - http://www.bohemiancoding.com/sketch -->
    <title>Page 1 Copy 3</title>
    <desc>Created with Sketch.</desc>
    <defs></defs>
    <g id="Promo" stroke="none" stroke-width="1" fill="none" fill-rule="evenodd">
        <g id="Promo:-Compare-Products" transform="translate(-1183.000000, -1811.000000)" fill="#FFFFFF">
            <g id="Compare-Tool" transform="translate(0.000000, 1738.000000)">
                <g id="clear-all" transform="translate(1179.000000, 69.000000)">
                    <path d="M14.1421356,4.17766953 C8.64213562,4.17766953 4.14213562,8.67766953 4.14213562,14.1776695 C4.14213562,19.6776695 8.64213562,24.1776695 14.1421356,24.1776695 C19.6421356,24.1776695 24.1421356,19.6776695 24.1421356,14.1776695 C24.1421356,8.67766953 19.6421356,4.17766953 14.1421356,4.17766953 L14.1421356,4.17766953 Z M17.6088885,15.1109167 L15.0753828,15.1109167 L15.0753828,17.6444224 C15.0753828,18.1774627 14.6754603,18.5776695 14.1421356,18.5776695 C13.6088109,18.5776695 13.2088885,18.1774627 13.2088885,17.6444224 L13.2088885,15.1109167 L10.6753828,15.1109167 C10.1423425,15.1109167 9.74213562,14.7109942 9.74213562,14.1776695 C9.74213562,13.6443448 10.1423425,13.2444224 10.6753828,13.2444224 L13.2088885,13.2444224 L13.2088885,10.7109167 C13.2088885,10.1778764 13.6088109,9.77766953 14.1421356,9.77766953 C14.6754603,9.77766953 15.0753828,10.1778764 15.0753828,10.7109167 L15.0753828,13.2444224 L17.6088885,13.2444224 C18.1419288,13.2444224 18.5421356,13.6443448 18.5421356,14.1776695 C18.5421356,14.7109942 18.1419288,15.1109167 17.6088885,15.1109167 L17.6088885,15.1109167 Z" id="Page-1-Copy-3" transform="translate(14.142136, 14.177670) rotate(-315.000000) translate(-14.142136, -14.177670) "></path>
                </g>
            </g>
        </g>
    </g>
</svg>