<svg id="Open-In-Same-Page-Inverted-Icon" xmlns="http://www.w3.org/2000/svg" width="16" height="16" viewBox="0 0 16 16">
  <rect id="Open-In-Same-Page-Inverted-Icon_background" data-name="Open-In-Same-Page-Inverted-Icon background" width="16" height="16" fill="rgba(0,0,0,0)"/>
  <path id="Path" d="M15.2,12.8a2.519,2.519,0,0,1-.662,1.58,2.742,2.742,0,0,1-1.738.82H3.2a2.382,2.382,0,0,1-1.5-.642A2.849,2.849,0,0,1,.8,12.8V3.2a2.737,2.737,0,0,1,.884-1.759A2.231,2.231,0,0,1,3.2.8H8.8V0H3.2A3.2,3.2,0,0,0,0,3.2v9.6A3.2,3.2,0,0,0,3.2,16h9.6A3.2,3.2,0,0,0,16,12.8V7.2h-.8Z" fill="#0d2ea0"/>
  <path id="Path_2" data-name="Path 2" d="M.8,6.067a.333.333,0,0,1-.473.009L.1,5.857A.333.333,0,0,1,.1,5.384L4.438.961,1.64.98A.333.333,0,0,1,1.3.647V.333A.333.333,0,0,1,1.638,0H5.751a.333.333,0,0,1,.333.333V4.6a.333.333,0,0,1-.333.333H5.576A.333.333,0,0,1,5.242,4.6l0-3.171Z" transform="translate(9.568 0.215)" fill="#0d2ea0"/>
</svg>
