<svg width="199" height="199" viewBox="0 0 199 199" fill="none" xmlns="http://www.w3.org/2000/svg">
<path d="M99.127 198.254C153.873 198.254 198.254 153.873 198.254 99.127C198.254 44.3807 153.873 0 99.127 0C44.3807 0 0 44.3807 0 99.127C0 153.873 44.3807 198.254 99.127 198.254Z" fill="#F5F5F5"/>
<path d="M93.9097 132.935H76.942C76.005 132.935 75.2452 133.695 75.2452 134.632C75.2452 135.569 76.005 136.329 76.942 136.329H93.9097C94.8467 136.329 95.6065 135.569 95.6065 134.632C95.6065 133.695 94.8467 132.935 93.9097 132.935Z" fill="#0D2EA0"/>
<path d="M93.9097 139.722H76.942C76.005 139.722 75.2452 140.482 75.2452 141.419C75.2452 142.356 76.005 143.116 76.942 143.116H93.9097C94.8467 143.116 95.6065 142.356 95.6065 141.419C95.6065 140.482 94.8467 139.722 93.9097 139.722Z" fill="#0D2EA0"/>
<path d="M149.886 61.5697C149.869 61.4 149.835 61.2644 149.784 61.1114C149.767 61.0432 149.75 60.9925 149.716 60.9251C149.648 60.8061 149.563 60.6872 149.478 60.5683C149.444 60.5342 149.41 60.4834 149.359 60.4494C149.342 60.4327 149.342 60.4153 149.325 60.3986L135.751 48.5212C135.615 48.4023 135.462 48.3175 135.31 48.2501C135.276 48.2334 135.242 48.2334 135.209 48.216C135.056 48.1478 134.886 48.1311 134.716 48.1137C134.682 48.1137 134.665 48.097 134.631 48.097H98.9992C98.066 48.097 97.3025 48.8606 97.3025 49.7938V59.9744H66.7606C65.8274 59.9744 65.0639 60.738 65.0639 61.6712V85.4259H53.5092C50.5225 85.4259 48.0962 87.8522 48.0962 90.8389V127.846C48.0962 130.646 50.3867 132.936 53.1865 132.936H65.0639V148.207C65.0639 149.14 65.8274 149.904 66.7606 149.904H114.27C115.203 149.904 115.967 149.14 115.967 148.207V132.936H127.844C130.644 132.936 132.935 130.646 132.935 127.846V122.756H148.205C149.139 122.756 149.902 121.992 149.902 121.059V61.672C149.902 61.6379 149.886 61.6038 149.886 61.5705V61.5697ZM63.3679 119.361H56.5808C55.6476 119.361 54.8841 118.597 54.8841 117.664C54.8841 116.731 55.6476 115.967 56.5808 115.967H63.3679C64.3011 115.967 65.0647 116.731 65.0647 117.664C65.0647 118.597 64.3011 119.361 63.3679 119.361ZM136.329 53.526L143.693 59.9737H136.329V53.526ZM112.574 146.509H68.4582V131.509L71.3768 122.754H109.656L112.574 131.509L112.574 146.509ZM107.484 105.786C104.684 105.786 102.394 103.496 102.394 100.696C102.394 97.8964 104.684 95.6059 107.484 95.6059C110.284 95.6059 112.574 97.8964 112.574 100.696C112.574 103.496 110.284 105.786 107.484 105.786ZM112.574 85.4253H68.4582V63.3673H112.574V85.4253ZM121.058 105.786C118.258 105.786 115.968 103.496 115.968 100.696C115.968 97.8964 118.258 95.6059 121.058 95.6059C123.858 95.6059 126.148 97.8964 126.148 100.696C126.148 103.496 123.858 105.786 121.058 105.786ZM146.51 119.361H132.935V90.8375C132.935 87.8508 130.509 85.4245 127.522 85.4245H115.968V61.6697C115.968 60.7365 115.204 59.973 114.271 59.973H100.697V51.4891H132.935V61.6697C132.935 62.603 133.699 63.3665 134.632 63.3665H146.51V119.361Z" fill="#0D2EA0"/>
</svg>
