<svg version="1" xmlns="http://www.w3.org/2000/svg" width="346.667" height="346.667" viewBox="0 0 260.000000 260.000000"><path d="M.2 129.7l.3 129.8 129.8.3 129.7.2V0H0l.2 129.7zM27.7 111c.1 3 .2 6 .2 6.6.1.8 1.4.5 3.8-.7 8.4-4.3 19.2-1.1 24.9 7.3l3.1 4.6 1.2-3.4c2.1-5.9 9.6-10.4 17.4-10.4 2.3 0 2.7.4 2.7 3 0 3 1.3 4 2.6 1.9.3-.6 2.5-2 4.8-3 5.4-2.5 13.6-2.5 18.5 0 3.8 2 9.9 8.1 10.3 10.4.1.7.4-4 .7-10.3l.6-11.5h10l.3 4.7.3 4.8H144v10h-15v8.7c.1 9.6.9 11.5 5.5 13.3 4.2 1.6 8.9-.3 10.9-4.4 1.3-2.7 1.6-6.9 1.6-20.5V105h10v6.5c0 6.9.3 7.3 3.4 5 2.3-1.8 10.8-2 13.9-.4 3.9 2 7.6 6.1 8.8 9.7l1.2 3.5 1.5-2.9c4.1-8.1 11.3-11.9 21.2-11.2 7.2.5 13.3 4.3 16.6 10.2l2.1 3.7 1.2-2.9c2.6-6.1 10.5-11.2 17.6-11.2h3.5v5c0 4.9-.1 5-2.9 5-1.7 0-4.2 1-5.8 2.4-2.8 2.4-2.8 2.6-3.1 15.5l-.4 13.1h-9.7l-.3-8.3-.3-8.2-15.8-.3c-17.1-.3-17.7 0-13.7 5.1 2.4 3 8.1 5.1 11.5 4.3 1.3-.3 3.6-1.9 5.2-3.6 2.3-2.5 3.6-3 7.5-3 2.7 0 4.8.2 4.8.5 0 1.4-4 8.2-5.7 9.7-5.4 4.9-17.4 6.4-24.1 2.9-4.4-2.3-8.7-6.6-10.1-10.1-.8-2-1-1.3-1 4.2l-.1 6.8h-9.8l-.4-13.4c-.2-11.2-.6-13.7-2.1-15.4-4.2-4.6-11.5-3-13.6 2.9-.6 1.8-1.1 8.3-1.1 14.5V156h-4.9c-2.8 0-5.1-.5-5.3-1.2-.3-.7-1.3-.5-3.2.7-8.2 5.4-24.4-1.9-24.7-11 0-2 0-2-1.2-.1-2.9 4.7-9.1 10.6-12.4 11.7-1.9.6-5.7 1.1-8.3 1.1-14.3 0-24.5-14.8-19.6-28.5.8-2 .9-3.7.4-3.7-1.9 0-6.6 3-7.2 4.5-.3.9-.6 7.3-.6 14.1V156H59v-11.3l-2.9 4c-7.4 10.2-24.3 11.3-32.8 2.1-4.6-4.9-5.3-8.5-5.3-27.8v-18.1l4.8.3 4.7.3.2 5.5z"/><path d="M200.3 124.4c-2.7 1.2-5.3 4.2-5.3 6 0 .3 4.5.6 10 .6s10-.4 10-.8c0-1.7-5.6-6-8.5-6.6-1.7-.3-4.4.1-6.2.8zM31.7 127c-3.6 2.9-5.2 8.1-3.7 12.5 1.6 4.9 5.3 7.5 10.7 7.5 3.8 0 5-.5 7.9-3.4 2.8-2.8 3.4-4.2 3.4-7.6 0-3.4-.6-4.8-3.4-7.6-2.9-2.9-4.1-3.4-7.9-3.4-2.9 0-5.3.7-7 2zM90.7 127.1c-3.7 2.8-5.4 8.8-3.7 12.9 3.1 7.5 12.2 9.5 18.2 4.1 2.9-2.6 3.3-3.5 3.3-8.1s-.4-5.5-3.3-8.1c-4.1-3.6-10.5-4-14.5-.8z"/></svg>