<?xml version="1.0" encoding="UTF-8"?><svg id="Layer_1" xmlns="http://www.w3.org/2000/svg" viewBox="0 0 118 118"><defs><style>.cls-1{fill:#0d2ea0;}.cls-2{fill:#fff;stroke:#0d2ea0;stroke-miterlimit:10;stroke-width:4.26px;}</style></defs><path class="cls-2" d="M59,3c30.93,0,56,25.07,56,56s-25.07,56-56,56S3,89.93,3,59,28.07,3,59,3"/><path class="cls-1" d="M76.57,34.38l-.57-.43c-2.65-2.05-5.82-3.3-9.16-3.6l-.72-.07-.11-8.33,.87,.06c5.47,.34,10.6,2.37,14.83,5.87l.67,.56-5.81,5.97v-.02Zm-8.86-5.56c3.14,.41,6.13,1.58,8.7,3.43l3.6-3.69c-3.6-2.77-7.85-4.44-12.36-4.89l.07,5.15h-.01Z"/><path class="cls-1" d="M39.31,47.69l.03-.84c.22-5.82,2.33-11.26,6.12-15.73l.56-.66,5.97,5.81-.46,.57c-2.31,2.87-3.63,6.33-3.85,9.99l-.05,.75-8.31,.11h-.01Zm6.82-14.86c-3.03,3.84-4.79,8.38-5.15,13.25l5.14-.07c.33-3.47,1.59-6.77,3.69-9.58l-3.69-3.59h.01Z"/><path class="cls-1" d="M53.56,34.68l-5.97-5.81,.66-.57c4.13-3.6,9.2-5.76,14.67-6.24l.87-.08,.11,8.33-.72,.08c-3.34,.39-6.47,1.72-9.07,3.84l-.56,.46Zm-3.59-5.73l3.69,3.6c2.53-1.91,5.48-3.17,8.61-3.66l-.07-5.15c-4.51,.56-8.7,2.35-12.23,5.2Z"/><path class="cls-1" d="M80.12,38.5l-.27-.41c-.38-.56-.77-1.1-1.2-1.59l-.47-.56,5.81-5.97,.57,.64c1.54,1.72,2.84,3.66,3.87,5.76l.5,1.01-8.83,1.12h.01Zm.22-2.47c.19,.25,.38,.5,.56,.76l5.58-.71c-.74-1.33-1.59-2.59-2.55-3.75l-3.6,3.69h.01Z"/><path class="cls-1" d="M82.83,47.12l-.06-.75c-.05-.51-.11-1.01-.19-1.51l-.11-.68,7.89-2.61,.19,.88c.31,1.41,.48,2.6,.55,3.72l.06,.84-8.31,.11h-.01Zm1.42-1.85c0,.08,.02,.15,.03,.23l5.13-.07c-.06-.56-.15-1.14-.27-1.77l-4.89,1.62h0Z"/><path class="cls-1" d="M88.78,39.18l-6.89,.88-16.38,2.08c-.17,.02-.35,.06-.52,.11-1.46,.48-2.24,2.05-1.77,3.5,.39,1.17,1.49,1.91,2.67,1.9,.27,0,.56-.05,.83-.14l16.01-5.28,6.38-2.11,4.86-1.61-5.19,.66Z"/><path class="cls-1" d="M48.32,71.95c-3.28,0-6.57-.71-9.62-2.13l-13.09-6.06,29.88-14.03,22.99,10.58-20.53,9.51c-3.06,1.42-6.34,2.13-9.64,2.13Zm-18.96-8.2l10,4.64c5.69,2.64,12.23,2.64,17.93,0l17.43-8.07-19.2-8.84-26.15,12.28Z"/><path class="cls-1" d="M56.23,70.42c-.21-.05-4.72-1.09-8.02-5.31-2.95,4.19-7.95,5.14-8.18,5.17l-.28-1.56s5.3-1.01,7.72-5.41c.14-.24,.39-.4,.66-.41,.3-.02,.54,.13,.69,.35,2.96,4.49,7.7,5.6,7.74,5.61l-.34,1.55Z"/><polygon class="cls-1" points="48.32 78.77 27.14 68.97 27.82 67.52 48.32 77.03 76.27 64.08 76.93 65.51 48.32 78.77"/><polygon class="cls-1" points="48.32 83.26 27.14 73.45 27.82 72.02 48.32 81.52 76.27 68.57 76.93 70 48.32 83.26"/><polygon class="cls-1" points="48.32 87.75 27.14 77.94 27.82 76.5 48.32 86 76.27 73.05 76.93 74.49 48.32 87.75"/><polygon class="cls-1" points="48.32 92.24 27.14 82.43 27.82 80.99 48.32 90.49 76.27 77.54 76.93 78.99 48.32 92.24"/><polygon class="cls-1" points="48.32 96.73 27.14 86.93 27.82 85.48 48.32 94.99 76.27 82.04 76.93 83.48 48.32 96.73"/></svg>