<?xml version="1.0" encoding="UTF-8"?><svg id="Layer_1" xmlns="http://www.w3.org/2000/svg" viewBox="0 0 118 118"><defs><style>.cls-1{fill:#0d2ea0;}.cls-2{fill:#fff;stroke:#0d2ea0;stroke-miterlimit:10;stroke-width:4.26px;}</style></defs><path class="cls-2" d="M59,3c30.93,0,56,25.07,56,56s-25.07,56-56,56S3,89.93,3,59,28.07,3,59,3"/><path class="cls-1" d="M94.59,60.79H27.58c-.06,.79-.08,1.55-.08,2.29H93.44v16.82h-10.87v-7.19H35.54v7.19h-.02c.06,.81-.16,1.61-.6,2.29h59.67c.63,0,1.14-.51,1.14-1.14v-19.1c0-.63-.51-1.14-1.14-1.14v-.02Zm-14.28,19.1H37.84v-4.9h42.46v4.9Z"/><path class="cls-1" d="M37.71,44.42h8.22l.35-1.38c.08-.33,.24-.63,.4-.91h-9.83c.09,.1,.18,.19,.26,.32,.39,.59,.58,1.28,.59,1.97Z"/><path class="cls-1" d="M42.92,56.2v-.03h-14.38c-.03,.1-.07,.18-.11,.3-.23,.64-.4,1.31-.54,1.99h15.19c-.3-.71-.36-1.49-.17-2.24h.01Z"/><path class="cls-1" d="M76.62,56.15c-1.48,.89-3.14,1.65-4.95,2.29h22.93c.43,0,.83-.25,1.03-.64,.19-.4,.14-.87-.13-1.21l-10.18-12.99c-.06-.07-.13-.13-.19-.19,.03,.34,.02,.68-.03,1.03-.13,.67-.3,1.32-.49,1.96l7.65,9.77h-15.63Z"/><path class="cls-1" d="M78.5,39c.47,1.16,.9,2.26,1.25,3.13,.31,.77,.55,1.39,.68,1.74-.05,.19-.11,.36-.16,.55-.84,3.21-2.79,5.55-5.31,7.23-.96,1.08-2.11,2.12-3.46,3.09-.69,.49-1.42,.97-2.23,1.41-.71,.4-1.47,.76-2.28,1.12,1.37-.28,2.72-.66,4.05-1.12,5.38-1.87,10.14-5.34,11.56-11.66,.03-.17,.1-.33,.14-.51,.05-.22,.02-.43-.06-.64-.03-.08-.21-.54-.48-1.22-1.08-2.73-3.69-9.28-4.85-11.7-.19-.4-.59-.65-1.04-.65h-.06c-.46,.02-.84,.33-1,.75,.22,.55,.43,1.1,.66,1.69,.95,2.44,1.92,5.05,2.57,6.79Z"/><path class="cls-1" d="M45.23,56.78c-.08,.33-.02,.67,.18,.96s.51,.44,.84,.47c.1,0,1.03,.07,2.51,.07h.46c.32,0,.65,0,1.01-.02,.74-.02,1.55-.06,2.43-.13,.09,0,.18-.01,.27-.02,2.18-.17,4.69-.49,7.29-1.09,.06-.01,.1-.02,.16-.05,1-.24,1.97-.51,2.89-.82,.99-.33,1.92-.68,2.81-1.08,1.51-.67,2.89-1.45,4.11-2.32,1.2-.85,2.24-1.81,3.14-2.85,1.4-1.62,2.43-3.45,3.09-5.48,.08-.26,.17-.52,.25-.8,.01-.05,.02-.09,.03-.15,.11-.42,.21-.84,.28-1.29v-.06c.02-.18,.01-.36-.05-.54-.03-.09-.24-.65-.55-1.46-.15-.4-.32-.87-.51-1.39-.17-.46-.35-.95-.56-1.47-.18-.5-.38-1.01-.58-1.54-.21-.52-.41-1.07-.62-1.61,0-.02-.02-.05-.02-.07-.22-.57-.44-1.14-.66-1.7,0-.02-.02-.05-.02-.07-.23-.59-.46-1.15-.67-1.7-.44-1.1-.84-2.06-1.14-2.73-.18-.41-.57-.67-1.01-.67h-.13c-.49,.05-.89,.39-1,.87l-.24,.97c-1.06,4.45-2.6,10.79-12.48,12.95-.21,.05-.42,.09-.64,.13-.68,.14-1.41,.25-2.19,.34-1.3,.16-2.68,.27-4.23,.31-.51,0-.96,.36-1.08,.85l-.21,.79-3.01,11.74-.16,.63-.02,.02Zm5.36-11.74c.49-.01,.93-.06,1.39-.09,.41-.02,.83-.05,1.22-.08h.06c.43-.05,.82-.1,1.23-.16,.09-.01,.19-.02,.28-.03,.55-.08,1.07-.16,1.58-.25,.05,0,.09-.02,.15-.03,.1-.02,.19-.03,.3-.06,2.13-.43,3.94-1.04,5.47-1.77,.05-.02,.1-.05,.15-.07,.25-.13,.51-.24,.75-.36,1.09-.6,2.03-1.28,2.84-1.99,2.79-2.47,4.05-5.48,4.82-8.14,.25,.64,.52,1.33,.8,2.04,.19,.51,.4,1.03,.59,1.54,0,.02,.01,.05,.02,.06,.18,.48,.36,.96,.55,1.42,0,.02,.01,.03,.02,.06,.18,.47,.35,.92,.51,1.36,.18,.47,.34,.91,.49,1.32,.18,.49,.35,.93,.49,1.3,.16,.42,.3,.79,.38,1v.03c-.03,.15-.09,.28-.13,.43-.15,.64-.32,1.28-.55,1.86-1.56,4.04-4.81,6.67-8.53,8.39-1.71,.79-3.51,1.38-5.3,1.83-2.27,.57-4.5,.9-6.5,1.09-.42,.05-.83,.08-1.22,.1-.42,.03-.83,.06-1.22,.08h-.05c-.42,.02-.83,.03-1.21,.05h-.05c-.43,0-.82,.01-1.18,.01h-.92l2.8-10.94h-.03Z"/><polygon class="cls-1" points="63.58 43.42 63.58 43.47 63.64 44.42 63.65 44.57 63.65 44.64 63.72 45.81 63.79 47.01 63.86 48.27 64.02 50.82 64.02 50.94 65.86 50.83 65.8 49.95 65.67 47.84 65.59 46.54 65.53 45.32 65.47 44.42 65.45 44.11 65.42 43.57 65.38 42.93 65.38 42.88 65.38 42.8 64.2 42.88 63.54 42.92 63.57 43.24 63.58 43.42"/><polygon class="cls-1" points="66.9 40.97 66.92 41.02 67.11 42.13 67.12 42.18 67.13 42.22 67.14 42.32 67.34 43.4 67.51 44.42 67.54 44.58 67.75 45.79 67.97 47.05 68.08 47.66 69.14 47.47 69.89 47.34 69.79 46.79 69.69 46.27 69.47 44.99 69.38 44.42 69.25 43.74 69.03 42.51 68.97 42.13 68.82 41.29 68.82 41.23 68.74 40.82 68.66 40.34 67.89 40.47 67.77 40.49 67.26 40.58 66.85 40.65 66.9 40.93 66.9 40.97"/><polygon class="cls-1" points="60.04 45.25 60.05 45.98 60.06 46.42 60.08 47.62 60.1 48.84 60.17 52.17 60.17 52.51 62.01 52.47 61.98 51.61 61.93 48.62 61.9 47.37 61.88 46.16 61.86 45.36 61.86 45.01 61.85 44.44 60.78 44.47 60.01 44.49 60.03 44.73 60.04 45.25"/><polygon class="cls-1" points="57.69 53.54 57.71 52.74 57.83 50.03 57.92 47.8 57.96 46.61 57.97 46.53 58 45.95 56.16 45.87 56.13 46.89 56.11 47.49 55.9 52.31 55.88 53.05 55.85 53.74 57.68 53.81 57.69 53.54"/><polygon class="cls-1" points="51.72 54.18 52.87 54.33 53.18 54.36 53.31 53.37 53.41 52.54 54.08 47.17 54.14 46.67 53.97 46.64 53.92 46.64 52.77 46.49 52.72 46.49 52.33 46.44 52.03 48.84 51.98 49.11 51.97 49.24 51.44 53.51 51.36 54.14 51.68 54.18 51.72 54.18"/><path class="cls-1" d="M34.1,43.09c-.23-.02-.48-.05-.73-.07-.18-.01-.34-.03-.52-.05-1.13-.09-2.35-.17-3.27-.17-.3,0-.55,0-.76,.02-1.85,.16-4.82,2.31-6.15,5.82-1.32,3.5-4.42,16.13-1.94,23.79,.62,1.91,1.15,3.38,1.65,4.56,.97,2.27,1.81,3.37,2.8,3.9,.56,.3,1.17,.42,1.88,.47,1.49,.11,3.35,.17,4.68,.21h.03c.88,0,1.55-.8,1.4-1.66h0l-1.16-6.84c-.11-.66-.66-1.15-1.32-1.18-.57-.03-1.25-.08-1.83-.11-.43-.02-.82-.06-1.01-.07-.23-.02-.47-.17-.72-.41-.58-.56-1.14-1.65-1.45-2.85-.23-.87-.51-2.92-.52-5.34,0-.74,.02-1.5,.08-2.29,.06-.77,.14-1.57,.27-2.35,.14-.79,.32-1.55,.55-2.29h-.18l.31-.39s.02-.07,.03-.09c.96-2.71,1.96-3.37,2.71-3.39h.06c.52,0,.91,.3,1.05,.39,.11,.07,.42,.13,.81,.13h.03c.52,0,1.18-.14,1.7-.56,.27-.23,.51-.52,.66-.95,.42-1.18,1.45-4.34,2.1-6.32,.05-.15,.03-.28,.03-.43,0-.72-.5-1.36-1.26-1.44v-.02Z"/></svg>