<?xml version="1.0" encoding="UTF-8"?><svg id="Layer_1" xmlns="http://www.w3.org/2000/svg" viewBox="0 0 118 118"><defs><style>.cls-1,.cls-2,.cls-3{fill:#0d2ea0;}.cls-2{opacity:.3;}.cls-2,.cls-3{isolation:isolate;}.cls-3{opacity:.5;}.cls-4{fill:#fff;stroke:#0d2ea0;stroke-miterlimit:10;stroke-width:4.26px;}</style></defs><path class="cls-4" d="M59,3c30.93,0,56,25.07,56,56s-25.07,56-56,56S3,89.93,3,59,28.07,3,59,3"/><rect class="cls-1" x="38.96" y="63.21" width="6.1" height=".46"/><rect class="cls-1" x="74.2" y="63.21" width="6.1" height=".46"/><path class="cls-1" d="M33.97,93.71V27.3h51.38v43.71l-22.71,22.7h-28.67Zm1.97-64.45v62.48h25.89l21.56-21.55V29.27H35.94Z"/><polygon class="cls-1" points="63.21 92.73 61.26 92.73 61.26 69.63 84.36 69.63 84.36 71.6 63.21 71.58 63.21 92.73"/><rect class="cls-1" x="47.36" y="48.12" width="4.72" height="15.55"/><rect class="cls-3" x="57.29" y="42.5" width="4.72" height="21.17"/><rect class="cls-2" x="67.22" y="37.01" width="4.72" height="26.66"/></svg>