<?xml version="1.0" encoding="UTF-8"?><svg id="Layer_1" xmlns="http://www.w3.org/2000/svg" viewBox="0 0 118 118"><defs><style>.cls-1{fill:#0d2ea0;}.cls-2{fill:#fff;stroke:#0d2ea0;stroke-miterlimit:10;stroke-width:4.26px;}</style></defs><path class="cls-2" d="M59,3c30.93,0,56,25.07,56,56s-25.07,56-56,56S3,89.93,3,59,28.07,3,59,3"/><path class="cls-1" d="M30.88,47.91c-1.06-1.85-1.69-3.96-1.69-6.24,0-6.9,5.61-12.52,12.52-12.52s12.52,5.61,12.52,12.52-5.35,12.22-12.02,12.49v2.06c7.81-.26,14.09-6.69,14.09-14.56s-6.54-14.58-14.58-14.58-14.58,6.54-14.58,14.58c0,3.31,1.13,6.37,3.01,8.83,.05-.91,.31-1.79,.75-2.59h-.02Z"/><path class="cls-1" d="M42.53,32.19c0-.46-.36-.83-.83-.83s-.83,.36-.83,.83v9.98c0,.46,.36,.83,.83,.83s.83-.36,.83-.83v-9.98Z"/><path class="cls-1" d="M50.34,42.02c0-3.31-1.87-6.29-4.89-7.74-.41-.21-.9-.02-1.1,.38-.19,.41-.02,.9,.39,1.1,2.44,1.18,3.95,3.59,3.95,6.26,0,3.83-3.09,6.94-6.9,6.98,.16,.48,.26,1.01,.33,1.62,4.57-.22,8.22-3.97,8.22-8.6Z"/><path class="cls-1" d="M38.67,35.75c.41-.19,.58-.69,.39-1.1-.19-.41-.69-.58-1.1-.38-3.01,1.46-4.87,4.43-4.87,7.74,0,1.15,.24,2.26,.65,3.27,.51-.23,1.05-.38,1.59-.46-.38-.87-.59-1.81-.59-2.8,0-2.68,1.51-5.08,3.95-6.26h-.01Z"/><path class="cls-1" d="M76.11,56.24c8.04,0,14.58-6.54,14.58-14.58s-6.54-14.58-14.58-14.58-14.58,6.54-14.58,14.58,6.54,14.58,14.58,14.58Zm0-27.09c6.9,0,12.52,5.61,12.52,12.52s-5.61,12.52-12.52,12.52-12.52-5.61-12.52-12.52,5.61-12.52,12.52-12.52Z"/><path class="cls-1" d="M69.02,48.74c.16,.16,.38,.24,.58,.24s.42-.08,.58-.24l5.91-5.91,5.91,5.91c.16,.16,.38,.24,.58,.24s.42-.08,.58-.24c.32-.32,.32-.84,0-1.17l-5.91-5.91,5.91-5.91c.32-.32,.32-.84,0-1.17s-.84-.32-1.17,0l-5.91,5.91-5.91-5.91c-.32-.32-.84-.32-1.17,0s-.32,.84,0,1.17l5.91,5.91-5.91,5.91c-.32,.32-.32,.84,0,1.17h.02Z"/><path class="cls-1" d="M86.6,61.47h-20.97c-2.26,0-4.09,1.83-4.09,4.1v20.97c0,2.26,1.83,4.1,4.09,4.1h20.97c2.26,0,4.1-1.83,4.1-4.1v-20.97c0-2.26-1.83-4.1-4.1-4.1Zm2.03,25.07c0,1.12-.91,2.03-2.03,2.03h-20.97c-1.12,0-2.03-.91-2.03-2.03v-20.97c0-1.12,.91-2.03,2.03-2.03h20.97c1.12,0,2.03,.91,2.03,2.03v20.97Z"/><path class="cls-1" d="M78.92,67.21c-1.55-1.55-4.07-1.55-5.61,0l-6.04,6.04c-1.55,1.55-1.55,4.07,0,5.61l6.04,6.04c.77,.77,1.79,1.16,2.8,1.16s2.04-.39,2.8-1.16l6.04-6.04c1.55-1.55,1.55-4.07,0-5.61l-6.04-6.04h.01Zm4.86,10.48l-6.04,6.04c-.9,.9-2.38,.9-3.28,0l-6.04-6.04c-.9-.9-.9-2.37,0-3.28l6.04-6.04c.46-.46,1.05-.67,1.64-.67s1.18,.23,1.64,.67l6.04,6.04c.9,.9,.9,2.37,0,3.28Z"/><path class="cls-1" d="M76.11,69.82c-.68,0-1.24,.56-1.24,1.24v9.98c0,.68,.56,1.24,1.24,1.24s1.24-.56,1.24-1.24v-9.98c0-.68-.56-1.24-1.24-1.24Z"/><path class="cls-1" d="M53.69,61.22h-.01c-.55,0-1.16,.08-1.74,.22-.22,.06-.43,.03-.64-.02-.03,.01-.08,.02-.11,.03-.02-.05-.06-.08-.09-.11-.17-.08-.33-.19-.44-.35-1.04-1.37-2.71-1.47-3.2-1.47-.57,0-1.21,.16-1.78,.46-.18,.09-.39,.13-.59,.13-.03,.02-.08,.05-.11,.07-.02-.03-.06-.06-.09-.09-.21-.03-.4-.13-.56-.26-.71-.59-1.63-.93-2.54-.93-.15,.02-.39,.02-.57,.06-.19,.03-.4,.02-.58-.03-.24,.08-.47,.17-.68,.3v-.83c-.13-.19-.21-.41-.21-.64v-6.17c0-.43-.05-.82-.1-1.16-.19-1-.62-1.66-.98-2.06-.05-.05-.09-.08-.14-.13-.33-.32-.71-.57-1.13-.73-.39-.15-.79-.24-1.22-.24h0c-.39,0-.76,.08-1.13,.22-.51,.18-1,.47-1.4,.87-.55,.55-.88,1.23-.99,1.96-.02,.17-.06,.35-.06,.54v17.55c0,.25-.08,.48-.21,.67v1.62c-.35-.41-.74-.76-1.13-1.07-.21-.01-.41-.07-.58-.19-.11-.07-.22-.14-.33-.21-.51-.3-1.2-.57-1.91-.57-.43,0-.89,.1-1.33,.36-.23,.14-.43,.28-.62,.47-1.92,1.92-.17,5.57,.88,7.74l.07,.15c.17,.36,.33,.68,.43,.95,.58,1.42,1.39,3.93,2.24,6.59l1.06,3.28c.51,1.63,.85,2.29,2.14,2.29h19.66c.47,0,.9-.21,1.3-.6h0c2.16-2.16,3.61-11.41,3.61-18.7,0-3.26-.39-5.76-1.16-7.46-1-2.21-2.48-2.48-3.01-2.44l-.02-.02Zm-20.77,26.37l-1.07-3.3c-.87-2.7-1.69-5.25-2.29-6.72-.14-.32-.33-.73-.55-1.2-.84-1.74-2.4-4.99-.99-5.81,.43-.25,1.06,.03,1.39,.23,1.4,.81,2.96,2.97,2.96,4.79,0,.57,.47,1.04,1.04,1.04s1.04-.47,1.04-1.04v-24.78c0-1.99,3.44-2.85,3.44,.74v21.1c0,.57,.47,1.04,1.04,1.04s1.04-.47,1.04-1.04v-10.44c0-.44,.93-1.46,1.83-1.46,.8,0,1.98,.51,1.98,1.94v9.85c0,.57,.47,1.04,1.04,1.04s1.04-.47,1.04-1.04v-10.27c.06-.25,.84-.89,1.64-.89,.84,0,1.82,.31,2.1,1.65v.1c0,.44,.08,9.34,.08,9.34,0,.57,.47,1.03,1.04,1.03h0c.57,0,1.03-.47,1.03-1.04v-8.96c.39-.17,1.15-.4,2.03-.4,.93,0,2.31,2.14,2.31,8.03,0,8.5-1.9,16.67-3.13,17.45h-19.62c-.09-.21-.22-.59-.33-.98h-.06Z"/></svg>