<svg width="23" height="22" viewBox="0 0 23 22" fill="none" xmlns="http://www.w3.org/2000/svg">
<path id="&#244;&#128;&#147;&#163;" d="M11.4947 22C9.99041 22 8.57483 21.7125 7.24794 21.1375C5.92106 20.5695 4.75028 19.778 3.73561 18.7628C2.72803 17.7477 1.93687 16.5763 1.36212 15.2488C0.787373 13.9213 0.5 12.505 0.5 11C0.5 9.495 0.787373 8.07874 1.36212 6.75121C1.93687 5.42369 2.72803 4.25589 3.73561 3.24782C4.75028 2.23266 5.91751 1.43756 7.2373 0.862536C8.56418 0.287512 9.97976 0 11.484 0C12.9954 0 14.4145 0.287512 15.7414 0.862536C17.0683 1.43756 18.2391 2.23266 19.2537 3.24782C20.2684 4.25589 21.0631 5.42369 21.6379 6.75121C22.2126 8.07874 22.5 9.495 22.5 11C22.5 12.505 22.2126 13.9213 21.6379 15.2488C21.0631 16.5763 20.2684 17.7477 19.2537 18.7628C18.2391 19.778 17.0683 20.5695 15.7414 21.1375C14.4145 21.7125 12.999 22 11.4947 22ZM11.4947 19.8277C12.7222 19.8277 13.8682 19.6005 14.9325 19.1462C15.9969 18.6918 16.9335 18.06 17.7424 17.2507C18.5513 16.4414 19.1828 15.5044 19.6369 14.4395C20.091 13.3746 20.3181 12.2281 20.3181 11C20.3181 9.77896 20.091 8.63601 19.6369 7.57115C19.1828 6.49919 18.5513 5.55857 17.7424 4.74927C16.9335 3.93998 15.9933 3.30816 14.9219 2.85382C13.8575 2.39948 12.7116 2.17231 11.484 2.17231C10.2636 2.17231 9.11764 2.39948 8.0462 2.85382C6.98186 3.30816 6.04878 3.93998 5.24698 4.74927C4.44517 5.55857 3.81721 6.49919 3.36309 7.57115C2.90897 8.63601 2.68191 9.77896 2.68191 11C2.68191 12.2281 2.90897 13.3746 3.36309 14.4395C3.81721 15.5044 4.44517 16.4414 5.24698 17.2507C6.05588 18.06 6.9925 18.6918 8.05685 19.1462C9.12829 19.6005 10.2742 19.8277 11.4947 19.8277ZM6.77963 16.3137C6.54548 16.3137 6.37163 16.2462 6.2581 16.1113C6.14457 15.9693 6.08781 15.7919 6.08781 15.5789C6.08781 15.2878 6.19424 14.9151 6.40711 14.4608C6.62708 14.0065 6.95702 13.5521 7.39695 13.0978C7.84398 12.6363 8.40453 12.2494 9.07862 11.9371C9.7598 11.6176 10.5616 11.4579 11.484 11.4579C12.4136 11.4579 13.2154 11.6176 13.8895 11.9371C14.5706 12.2494 15.1312 12.6363 15.5711 13.0978C16.011 13.5521 16.341 14.0065 16.561 14.4608C16.7809 14.9151 16.8909 15.2878 16.8909 15.5789C16.8909 15.7919 16.8341 15.9693 16.7206 16.1113C16.6071 16.2462 16.4332 16.3137 16.1991 16.3137H6.77963ZM11.484 10.6273C10.9873 10.6273 10.5332 10.4995 10.1217 10.2439C9.71722 9.98128 9.39082 9.62988 9.14248 9.18974C8.90123 8.7425 8.7806 8.23846 8.7806 7.67764C8.7806 7.15231 8.90123 6.66957 9.14248 6.22943C9.39082 5.78929 9.71722 5.43788 10.1217 5.17522C10.5332 4.91255 10.9873 4.78122 11.484 4.78122C11.9807 4.78122 12.4348 4.91255 12.8464 5.17522C13.2579 5.43788 13.5843 5.78929 13.8256 6.22943C14.0668 6.66957 14.1875 7.15231 14.1875 7.67764C14.1875 8.23846 14.0668 8.7425 13.8256 9.18974C13.5843 9.62988 13.2579 9.98128 12.8464 10.2439C12.4348 10.4995 11.9807 10.6273 11.484 10.6273Z" fill="white"/>
</svg>
