<svg xmlns="http://www.w3.org/2000/svg" id="svg98" width="209.44" height="78.77">
  <defs id="defs86">
    <style id="style84">
      .cls-1{fill:#bcd9ea}.cls-3{fill:#103c60}
    </style>
  </defs>
  <rect id="rect88" width="104.72" height="78.77" fill="#bcd9ea" class="cls-1" rx="39.38"/>
  <rect id="rect90" width="104.72" height="78.77" x="104.72" fill="#bcd9ea" class="cls-1" rx="39.38"/>
  <circle id="circle92" cx="105.38" cy="39.39" r="26.41" fill="#fff"/>
  <path id="path94" fill="#103c60" d="M44.78 22.73a4 4 0 1 0-4.06-4 4 4 0 0 0 4.06 4zm10.55 26.59a2.34 2.34 0 0 0-1.55 1.72v.08a11.84 11.84 0 0 1-7.65 7.5 11.35 11.35 0 0 1-4.78.4 12.56 12.56 0 0 1-6.38-3.07l-.19-.12-.5-.51c-.15-.17-.3-.33-.44-.51s-.09-.12-.14-.17a12 12 0 0 1-2.14-4.11 12.54 12.54 0 0 1-.41-5.27 12 12 0 0 1 6.08-8.92h.07a2.4 2.4 0 0 0-.52-4.62 2.2 2.2 0 0 0-1.34.22 16.86 16.86 0 0 0-9 12.77 17.14 17.14 0 0 0 .63 7.64 16.26 16.26 0 0 0 20.2 11 16.58 16.58 0 0 0 10.9-11.06 2.38 2.38 0 0 0 0-1.4 2.28 2.28 0 0 0-2.84-1.57z" class="cls-3"/>
  <path id="path96" fill="#103c60" d="M74.3 52.63a1.81 1.81 0 0 0-2.44-.66l-2.67 1.5-6.78-10.22A2.44 2.44 0 0 0 60.35 42H47.62v-4h8.82a2.54 2.54 0 0 0 0-5.06h-8.82v-5.3a2.86 2.86 0 0 0-5.72 0v16.64a2.92 2.92 0 0 0 2.61 2.89 5.82 5.82 0 0 0 .59 0h14.77l6.43 9.69a2.16 2.16 0 0 0 1.31.9 1.84 1.84 0 0 0 .41.06h.05a1.74 1.74 0 0 0 .71-.12h.13a.45.45 0 0 1 .11 0l4.61-2.58a1.76 1.76 0 0 0 .67-2.49zm102.89 10.54a.43.43 0 0 1-.43.43h-35.44a.44.44 0 0 1-.43-.43v-13a.43.43 0 0 1 .43-.43h35.46a.43.43 0 0 1 .43.43v13m-23-7.21h3.5a.38.38 0 0 0 .37-.38v-3.5a.38.38 0 0 0-.37-.38h-3.5a.38.38 0 0 0-.38.38v3.5a.38.38 0 0 0 .38.38m-6.68 1.21h-3.5a.36.36 0 0 0-.37.37v3.5a.36.36 0 0 0 .37.37h3.5a.37.37 0 0 0 .38-.37v-3.5a.37.37 0 0 0-.38-.37m0-1.26h3.49a.38.38 0 0 0 .38-.38v-3.5a.38.38 0 0 0-.38-.38h-3.49a.38.38 0 0 0-.39.38v3.5a.38.38 0 0 0 .39.38m13.24 0h3.5a.38.38 0 0 0 .38-.38v-3.5a.38.38 0 0 0-.38-.38h-3.49a.37.37 0 0 0-.37.38v3.5a.37.37 0 0 0 .37.38m6.63 0h3.5a.37.37 0 0 0 .37-.38v-3.5a.37.37 0 0 0-.37-.38h-3.5a.37.37 0 0 0-.37.38v3.5a.37.37 0 0 0 .37.38m0 1.26h-3.5a.37.37 0 0 0-.38.37v3.5a.37.37 0 0 0 .38.37h3.5a.37.37 0 0 0 .38-.37v-3.5a.37.37 0 0 0-.38-.37m-13.26 0h-3.49a.37.37 0 0 0-.38.37v3.5a.37.37 0 0 0 .38.37h3.49a.37.37 0 0 0 .39-.37v-3.5a.37.37 0 0 0-.39-.37m19.89 0h-3.5a.37.37 0 0 0-.38.37v3.5a.37.37 0 0 0 .38.37h3.5a.37.37 0 0 0 .37-.37v-3.5a.37.37 0 0 0-.37-.37m-13.26 0h-3.5a.37.37 0 0 0-.38.37v3.5a.37.37 0 0 0 .38.37h3.5a.37.37 0 0 0 .38-.37v-3.5a.37.37 0 0 0-.38-.37m-19-9.62a.36.36 0 0 0 .32.38h33.94a.35.35 0 0 0 .31-.38V15.61a.35.35 0 0 0-.31-.38h-33.97a.36.36 0 0 0-.32.38zm4.6-5.67V20.37a.3.3 0 0 1 .29-.31h25a.29.29 0 0 1 .28.31v21.51a.3.3 0 0 1-.28.32h-25a.31.31 0 0 1-.29-.32m53.51 36.51v-4.37h-1.56v-.85h4.18v.89h-1.55v4.37zm3.29 0v-5.22h1.6l.95 3.59.95-3.59h1.59v5.26h-1v-4.18l-1 4.14h-1l-1-4.14v4.14zm-87.1-44.01l-21-10.93c0 4.5.51 7.4 3.6 9l10.56 5.49zm2.75 1.43l-6.87 3.57-13.18 6.88c-3 1.64-3.7 5.19-3.7 9.07l19.09-9.93c4.22-2.3 4.68-5.11 4.68-9.59z" class="cls-3"/>
</svg>